<?xml version="1.0" encoding="UTF-8"?>
<svg version="1.1" xmlns="http://www.w3.org/2000/svg" width="1893" height="816">
<path d="M0 0 C1.0479021 13.38060156 1.21501643 26.72852036 1.31640625 40.14453125 C1.33726279 42.49646788 1.35844453 44.84840166 1.37992859 47.20033264 C1.43561708 53.44965156 1.48542229 59.69900192 1.53303528 65.94838715 C1.5625785 69.82279498 1.59302295 73.69719489 1.62365723 77.57159424 C1.7338962 91.60662304 1.83544013 105.64169363 1.92922783 119.67684174 C1.97800375 126.93581427 2.0321526 134.19471848 2.09130859 141.45361328 C2.15437155 149.2425054 2.2008273 157.03131736 2.23117065 164.82040405 C2.24194478 167.46739531 2.26075155 170.11393906 2.28372192 172.76089478 C2.46866096 195.0809409 1.30200732 217.49519698 -3.75 239.3125 C-4.00676514 240.45799316 -4.26353027 241.60348633 -4.52807617 242.78369141 C-15.79559061 291.71011952 -39.34446249 335.36944166 -69.55712891 375.09765625 C-72.05247157 378.38762411 -74.52559219 381.69427369 -77 385 C-59.55071373 377.05900745 -43.871282 365.99671716 -29 354 C-28.41476563 353.53190918 -27.82953125 353.06381836 -27.2265625 352.58154297 C-11.13320383 339.60766309 3.88392922 324.76884059 16 308 C16.85334392 306.85225242 17.70752439 305.70512638 18.5625 304.55859375 C52.50801101 258.55959325 65.19116679 204.96751226 65.40471697 148.52026892 C65.42056638 144.86878386 65.44728433 141.21737688 65.4727478 137.56594849 C65.51915596 130.68171379 65.5560811 123.79746377 65.58942068 116.91315472 C65.62791389 109.06277737 65.67725073 101.21247918 65.72740483 93.36216903 C65.83015854 77.24150324 65.91959899 61.12079312 66 45 C71.68363321 49.74142787 76.97482344 54.78966151 82.23852539 59.99041748 C83.147677 60.88530892 84.05682861 61.78020035 84.99353027 62.70220971 C87.50161894 65.17139965 90.00669362 67.64362698 92.51111913 70.11653161 C94.11499542 71.69973284 95.71973511 73.28205375 97.32476616 74.86408424 C118.28913841 95.52820445 139.18979617 116.25670801 160.07119751 137.00463486 C162.71543657 139.63166893 165.35984284 142.25853455 168.00439453 144.88525391 C168.99023903 145.86447081 168.99023903 145.86447081 169.99599957 146.86346987 C180.64819797 157.44203725 191.33490262 167.98506502 202.03509653 178.51505789 C213.03289958 189.33937471 223.99429335 200.1995618 234.92249775 211.09414601 C241.65763658 217.80636688 248.41913585 224.48951362 255.21748334 231.13771698 C259.87571619 235.69847934 264.49790533 240.29383002 269.09361762 244.91757825 C271.74372004 247.58180099 274.40658269 250.22844636 277.11344719 252.83508492 C294.14683044 269.26859572 294.14683044 269.26859572 295.02726746 277.15840912 C295.03002284 281.65837778 294.15137568 285.66278357 293 290 C292.71965398 292.06298553 292.45931299 294.12903805 292.23828125 296.19921875 C291.94336867 298.03090107 291.63474272 299.8604277 291.3125 301.6875 C291.13807373 302.69167969 290.96364746 303.69585938 290.78393555 304.73046875 C282.1417943 352.51423028 260.43559428 399.10333883 226.59375 434.2890625 C224.48716122 436.49082848 222.51040358 438.72310599 220.5625 441.0625 C211.63615576 451.32563976 200.82129146 459.84184463 190 468 C188.95972656 468.79792969 187.91945313 469.59585937 186.84765625 470.41796875 C140.93687979 504.91625526 85.16299596 520.1313129 28.39892578 520.16113281 C26.33122674 520.16576909 24.26352853 520.17079482 22.1958313 520.17617798 C16.60900351 520.1892215 11.02218769 520.19573049 5.43534708 520.20018864 C1.93823876 520.20313095 -1.55886636 520.20723777 -5.05597305 520.21169281 C-16.01766629 520.22534328 -26.97935213 520.23502327 -37.94105327 520.2388947 C-50.55893314 520.24337688 -63.17670476 520.26094258 -75.79455173 520.2898953 C-85.57497624 520.31155263 -95.35537038 520.32160106 -105.1358186 520.32293582 C-110.96559714 520.32398045 -116.79527358 520.32981599 -122.6250267 520.34775543 C-128.10970746 520.36430753 -133.59421009 520.36635711 -139.07890701 520.35761642 C-141.0822879 520.35685001 -143.08567866 520.36113611 -145.08903503 520.37107468 C-169.05702008 520.48293212 -189.55247532 515.43246345 -207.58203125 498.578125 C-221.63065542 483.59897806 -228.17600593 464.88876486 -228.13371277 444.54421997 C-228.13597833 443.73085171 -228.13824388 442.91748344 -228.14057809 442.07946765 C-228.14687147 439.37343896 -228.14609169 436.66746095 -228.14526367 433.96142578 C-228.14825842 432.0123081 -228.15166167 430.06319102 -228.15544128 428.11407471 C-228.16426184 422.82784414 -228.16661882 417.54162977 -228.16725707 412.25539255 C-228.16796965 408.94113276 -228.17010809 405.62687703 -228.17275429 402.31261826 C-228.18200727 390.71540823 -228.18608998 379.11820968 -228.18530273 367.52099609 C-228.1847047 356.7717888 -228.19520257 346.02263213 -228.2110464 335.27343762 C-228.22421361 326.00415443 -228.22948269 316.73488757 -228.22884732 307.46559513 C-228.22859465 301.94839059 -228.23131526 296.43123089 -228.24202538 290.9140358 C-228.37177195 218.97143208 -217.16168902 152.25028957 -170 95 C-169.47583496 94.3615918 -168.95166992 93.72318359 -168.41162109 93.06542969 C-157.17678879 79.49792688 -144.97131632 66.76688597 -131 56 C-129.72464385 54.98514935 -128.44995307 53.9694622 -127.17578125 52.953125 C-117.25409453 45.11378196 -107.00739303 38.22024426 -96 32 C-95.13665039 31.51144531 -94.27330078 31.02289063 -93.38378906 30.51953125 C-66.45444615 15.47390914 -31.58180647 0 0 0 Z " fill="#FFFFFF" transform="translate(228,294)"/>
<path d="M0 0 C2.1556318 -0.00599996 4.31126148 -0.01280881 6.46688843 -0.02035522 C12.26624322 -0.03786314 18.06553884 -0.04270383 23.86491752 -0.0439868 C27.49775338 -0.04541648 31.13057457 -0.04970118 34.76340675 -0.05498123 C47.46321175 -0.07342395 60.16297502 -0.0816582 72.86279297 -0.08007812 C84.66221566 -0.07887501 96.46145596 -0.10002561 108.26083249 -0.13156545 C118.43120573 -0.15777326 128.6015195 -0.16844369 138.77192622 -0.16716731 C144.82914827 -0.16665945 150.88620752 -0.17224652 156.94339561 -0.19352341 C162.63750464 -0.21298451 168.33129667 -0.21297657 174.02541733 -0.19849014 C176.10417333 -0.19641143 178.18294962 -0.20104642 180.26167107 -0.21321106 C203.05429369 -0.33787083 222.62188267 4.58667141 239.45727539 20.80810547 C256.98239449 38.72267165 260.53286043 59.82275346 260.40917969 83.72192383 C260.41297159 85.8314805 260.41847876 87.94103467 260.42555237 90.05058289 C260.43941826 95.73719066 260.42839626 101.42349279 260.41184115 107.11008334 C260.39788475 113.09878641 260.40446332 119.08747362 260.40797424 125.07618713 C260.41066993 135.13881283 260.39726252 145.20131883 260.37402344 155.26391602 C260.3474831 166.83473112 260.34564835 178.40534542 260.3574118 189.97618049 C260.36826452 201.17279104 260.36194 212.3693302 260.34785652 223.56593513 C260.3421547 228.2985106 260.34213316 233.03103282 260.34692192 237.76360893 C260.38311921 285.96992876 260.38311921 285.96992876 256.9074707 305.29052734 C256.64198441 306.77210107 256.64198441 306.77210107 256.37113476 308.28360558 C248.5905465 351.01580456 229.89438731 392.00461733 201.9074707 425.29052734 C201.05329191 426.33088197 200.1991261 427.37124726 199.3449707 428.41162109 C188.16191111 441.88221304 175.86821461 454.68573149 161.9074707 465.29052734 C160.70920075 466.22887845 159.51131072 467.16771485 158.3137207 468.10693359 C126.16755327 493.04778676 88.70186386 509.54945945 48.9074707 517.72802734 C47.7160144 517.974198 47.7160144 517.974198 46.50048828 518.2253418 C41.54615956 519.17314026 36.95199616 519.34367974 31.9074707 519.29052734 C31.77388358 509.79419057 31.64338126 500.29781697 31.51631927 490.80139065 C31.45716661 486.38686042 31.39713496 481.97234668 31.3347168 477.55786133 C31.31076573 475.85351598 31.28683991 474.14917028 31.26293945 472.44482422 C31.25097503 471.59804045 31.2390106 470.75125668 31.22668362 469.87881279 C31.16749181 465.58292062 31.11626984 461.28714649 31.07984924 456.99099731 C31.06486575 455.25832046 31.04980519 453.52564427 31.03466797 451.79296875 C31.02734681 450.93537523 31.02002565 450.07778172 31.01248264 449.19420052 C30.95795761 443.79581393 30.83227154 438.40355908 30.659132 433.00771618 C30.54969687 429.41607549 30.47411152 425.82415253 30.40393066 422.23155403 C30.36247538 420.53173501 30.30577793 418.83220988 30.2328186 417.13345146 C29.68210139 404.10840637 29.68210139 404.10840637 32.66880798 399.67752075 C36.22746011 396.52369936 40.12033367 394.29403774 44.73168945 393.05615234 C49.85073766 391.43475989 53.58042163 389.08346581 57.7824707 385.79052734 C58.69113892 385.10434326 58.69113892 385.10434326 59.61816406 384.40429688 C97.79488644 355.39349932 121.64428424 317.76469135 129.65136719 270.22558594 C129.97307325 268.12017182 129.97307325 268.12017182 129.9074707 265.29052734 C129.32481445 266.38107422 128.7421582 267.47162109 128.1418457 268.59521484 C119.76979873 284.07302152 110.61381433 299.08044201 98.9074707 312.29052734 C98.42165527 312.84192383 97.93583984 313.39332031 97.43530273 313.96142578 C90.44607464 321.84770161 83.2416859 328.80699817 74.9074707 335.29052734 C73.1989151 336.74860026 71.49058714 338.20693997 69.7824707 339.66552734 C40.87998379 363.29052734 40.87998379 363.29052734 30.9074707 363.29052734 C30.27468723 311.00638697 30.27468723 311.00638697 33.9074707 292.29052734 C34.18155762 290.78159912 34.18155762 290.78159912 34.46118164 289.2421875 C39.20059771 263.63455438 47.27964396 237.97256462 58.78491211 214.57666016 C59.95803162 212.18755813 61.09537972 209.78326808 62.23168945 207.37646484 C72.81582144 185.27202816 86.42261205 164.62943007 101.52075195 145.35302734 C104.36608273 141.70206281 107.14049031 138.00102391 109.9074707 134.29052734 C75.21138311 152.96997886 41.5813541 177.47293424 18.14916992 209.60449219 C16.86922015 211.34246567 15.55123633 213.04558361 14.22387695 214.74755859 C0.45955882 232.61891247 -10.20834162 253.17957745 -18.0925293 274.29052734 C-19.0825293 274.29052734 -20.0725293 274.29052734 -21.0925293 274.29052734 C-50.57145012 242.21052527 -60.11956141 195.13105328 -62.0925293 153.29052734 C-75.33941998 198.63363932 -71.58516709 244.41740889 -49.10131836 286.35571289 C-43.91425688 295.68073385 -38.18905019 305.33744832 -31.2331543 313.46240234 C-29.63069696 316.03072438 -29.93620802 317.61380473 -30.2800293 320.60302734 C-30.55440372 323.16519725 -30.8247451 325.72766847 -31.0925293 328.29052734 C-31.17390011 329.05269625 -31.25527092 329.81486515 -31.33910751 330.60013008 C-33.07596353 347.22416606 -33.43282039 363.73835312 -33.5065918 380.44287109 C-33.52432696 383.16770294 -33.54484095 385.89251208 -33.5652771 388.61732483 C-33.61150296 394.9878597 -33.648513 401.35841102 -33.68194997 407.72902447 C-33.7205764 414.99912045 -33.76987575 422.26913291 -33.81993413 429.53915775 C-33.92241485 444.45621872 -34.01193933 459.37333078 -34.0925293 474.29052734 C-37.35529231 472.85732417 -39.5412958 471.1014382 -42.06739426 468.60086441 C-42.85215566 467.82871888 -43.63691707 467.05657336 -44.44545913 466.26102948 C-45.30148923 465.40872337 -46.15751934 464.55641726 -47.03948975 463.67828369 C-47.95353962 462.77582059 -48.8675895 461.87335748 -49.80933785 460.94354701 C-52.34742432 458.43713266 -54.8791906 455.92441755 -57.40987849 453.41053605 C-59.5810291 451.2554056 -61.75583269 449.10398043 -63.93067136 446.95257279 C-71.71921045 439.24779559 -79.49312957 431.52833696 -87.2644043 423.80615234 C-88.184537 422.89194434 -88.184537 422.89194434 -89.12325823 421.9592675 C-101.30556637 409.85528946 -113.48241522 397.74583146 -125.64782333 385.62486649 C-128.32185881 382.96076943 -130.99596926 380.29674766 -133.67016602 377.6328125 C-134.3348111 376.97070875 -134.99945619 376.30860501 -135.68424204 375.62643752 C-146.4514353 364.90196322 -157.24595944 354.20543144 -168.05167732 343.51978949 C-179.14751802 332.5462368 -190.2167154 321.54635627 -201.26086164 310.5207746 C-207.46161643 304.33183686 -213.67367304 298.15523744 -219.91609955 292.00830841 C-225.23254603 286.77312012 -230.5246 281.51474501 -235.78644553 276.22465679 C-238.47092034 273.52725904 -241.16536089 270.84239401 -243.89164543 268.18720436 C-246.85121406 265.30420065 -249.75340596 262.36939392 -252.65350342 259.42657471 C-253.51845641 258.60103726 -254.3834094 257.77549981 -255.27457309 256.92494607 C-259.95185418 252.07183997 -261.60235165 248.88097578 -261.65927505 242.05228806 C-261.52226232 239.79461826 -261.3348159 237.5393365 -261.0925293 235.29052734 C-260.93283114 233.61302017 -260.93283114 233.61302017 -260.76990676 231.90162396 C-260.44460192 228.78401684 -260.00720963 225.70095328 -259.5300293 222.60302734 C-259.35294434 221.44875244 -259.17585938 220.29447754 -258.9934082 219.10522461 C-251.75243688 174.45861736 -233.04763628 133.67771996 -205.0925293 98.29052734 C-204.29202148 97.26443359 -203.49151367 96.23833984 -202.66674805 95.18115234 C-189.78662807 79.32237623 -174.70413547 64.19921221 -158.0925293 52.29052734 C-156.94697843 51.44033696 -155.80246859 50.58874234 -154.65893555 49.73583984 C-146.46626699 43.68497056 -137.96167454 38.29112898 -129.0925293 33.29052734 C-127.95847656 32.64664063 -127.95847656 32.64664063 -126.80151367 31.98974609 C-102.65109042 18.41857708 -76.90007526 9.66887957 -49.8425293 4.04052734 C-49.12403809 3.88922363 -48.40554688 3.73791992 -47.6652832 3.58203125 C-31.8495111 0.49423987 -16.05987417 -0.00904263 0 0 Z " fill="#FFFFFF" transform="translate(556.092529296875,1.70947265625)"/>
<path d="M0 0 C1.93207087 -0.00407502 3.86413941 -0.00942208 5.79620361 -0.01593018 C11.00349851 -0.02950815 16.21061335 -0.02434229 21.41791105 -0.01479292 C26.90480207 -0.00713571 32.39167886 -0.01425962 37.87857056 -0.01895142 C47.09973886 -0.02439606 56.32083489 -0.01725618 65.54199219 -0.00292969 C76.13860162 0.01334576 86.73503738 0.00814026 97.33164251 -0.0084089 C106.48301799 -0.02211899 115.63434182 -0.02389593 124.78572428 -0.0160929 C130.2273502 -0.01146199 135.66889517 -0.0106619 141.11051559 -0.02070236 C175.96064333 -0.07609366 208.80319047 1.98593141 242.33447266 12.38818359 C241.00994897 15.36112844 239.61695788 17.30971224 237.20947266 19.48974609 C236.59023926 20.05717529 235.97100586 20.62460449 235.33300781 21.20922852 C234.67349121 21.80453369 234.01397461 22.39983887 233.33447266 23.01318359 C231.96619118 24.27110927 230.59900596 25.53022839 229.23291016 26.79052734 C228.56485352 27.40524902 227.89679688 28.0199707 227.20849609 28.65332031 C220.49125364 34.87175764 214.36854634 41.34145709 208.66650391 48.50146484 C206.64987264 50.99776385 204.56729361 53.41492664 202.44873047 55.82446289 C162.13439322 102.03300442 139.41458017 163.44015054 131.23364258 223.4621582 C130.43122513 229.29143112 130.43122513 229.29143112 129.33447266 230.38818359 C127.57202434 230.68732429 125.79997589 230.93015446 124.02587891 231.14990234 C89.70008913 235.5944914 55.82348056 243.92116822 24.62060547 259.265625 C22.23150344 260.43874451 19.8272134 261.57609261 17.42041016 262.71240234 C-0.28883826 271.19208627 -17.01071141 281.54054479 -32.66552734 293.38818359 C-33.54047852 294.04898926 -33.54047852 294.04898926 -34.43310547 294.72314453 C-41.66764881 300.22124139 -48.56817038 305.94874159 -55.22802734 312.13427734 C-57.2939692 314.0446114 -59.39503313 315.88148329 -61.54052734 317.70068359 C-70.19059332 325.22713275 -78.34068328 333.57173492 -85.66552734 342.38818359 C-94.26180528 333.79190566 -95.3081475 310.93205905 -97.04052734 299.26318359 C-97.19569824 298.22427979 -97.35086914 297.18537598 -97.51074219 296.11499023 C-99.57790203 281.10392128 -99.81597083 266.02340789 -99.81079102 250.89746094 C-99.81379259 249.11635774 -99.81719737 247.33525518 -99.82096863 245.55415344 C-99.82970624 240.77124413 -99.83214222 235.98835276 -99.83278441 231.20543623 C-99.83350019 228.20696932 -99.83564426 225.20850684 -99.83828163 222.21004105 C-99.84749751 211.72124191 -99.8516208 201.23245539 -99.85083008 190.74365234 C-99.85022864 181.00911895 -99.86080306 171.27464084 -99.87657374 161.54012144 C-99.8896909 153.14046038 -99.89501231 144.74081732 -99.89437467 136.34114611 C-99.89412113 131.34253713 -99.89689263 126.34397753 -99.90755272 121.34537888 C-99.91730577 116.64531364 -99.91726403 111.94534432 -99.91003609 107.2452755 C-99.90899951 105.53257416 -99.91129718 103.81986661 -99.91739655 102.10717583 C-100.00874978 74.65309217 -94.60279013 50.15702966 -75.66552734 29.38818359 C-74.99134766 28.62119141 -74.31716797 27.85419922 -73.62255859 27.06396484 C-65.13685209 17.94143234 -54.58653011 11.2893326 -43.16552734 6.45068359 C-42.53904297 6.18046387 -41.91255859 5.91024414 -41.26708984 5.63183594 C-27.8677349 0.32119802 -14.18510247 -0.05079621 0 0 Z " fill="#FFFFFF" transform="translate(99.66552734375,-0.38818359375)"/>
<path d="M0 0 C0.66 0 1.32 0 2 0 C5.26191689 10.63384908 8.25726743 21.23533174 10.25 32.1875 C10.40049805 33.00299316 10.55099609 33.81848633 10.70605469 34.65869141 C13.3610109 49.98882621 14.30052432 65.12913764 14.29052734 80.65820312 C14.29653047 82.55281331 14.30334002 84.44742108 14.31088257 86.34202576 C14.32836072 91.43086252 14.33322994 96.51963182 14.33451414 101.60849571 C14.33594582 104.79980017 14.34023426 107.99108801 14.34550858 111.18238831 C14.36394318 122.3489794 14.37218679 133.5155231 14.37060547 144.68212891 C14.36940336 155.03982414 14.39053634 165.39731127 14.4220928 175.75495386 C14.44834783 184.69566135 14.45896903 193.63630118 14.45769465 202.57704687 C14.45718807 207.89604904 14.46270284 213.2148655 14.48405075 218.53382874 C14.50359174 223.53768834 14.50345061 228.54118788 14.48901749 233.54506111 C14.48694836 235.36616106 14.49151498 237.18728455 14.5037384 239.00834465 C14.67976215 267.08107815 5.88561927 292.82395405 -14 313.12109375 C-36.58383489 335.21820806 -63.9211178 342.34045838 -94.83959961 342.25878906 C-96.58757675 342.26150604 -98.33555274 342.2650709 -100.08352661 342.26940918 C-104.7927984 342.27845759 -109.50198167 342.27501872 -114.21125484 342.26865101 C-119.17457595 342.26354438 -124.1378901 342.26829597 -129.10121155 342.27142334 C-137.44224387 342.27505256 -145.78324067 342.27029458 -154.12426758 342.26074219 C-163.70805539 342.24989186 -173.29175784 342.25336251 -182.87554353 342.264395 C-191.15383115 342.2735364 -199.43209339 342.27471903 -207.71038443 342.26951766 C-212.63215722 342.26643115 -217.55389024 342.26589485 -222.47566032 342.27259064 C-270.42910208 342.32898434 -270.42910208 342.32898434 -292.5625 338.25 C-293.48377686 338.08516113 -294.40505371 337.92032227 -295.35424805 337.75048828 C-302.41996838 336.42682617 -309.37165715 334.74108134 -316.3125 332.875 C-317.25617432 332.62137695 -318.19984863 332.36775391 -319.17211914 332.10644531 C-325.74088727 330.25911273 -325.74088727 330.25911273 -328 328 C-326.61941406 326.72769531 -326.61941406 326.72769531 -325.2109375 325.4296875 C-307.77194418 309.40376797 -307.77194418 309.40376797 -292.12109375 291.67578125 C-289.92337786 288.9033404 -287.62369053 286.240784 -285.3125 283.5625 C-273.08045493 268.84611709 -263.15061241 252.76115447 -254 236 C-253.17850358 234.52206973 -252.35689468 233.04420197 -251.53515625 231.56640625 C-245.92308161 221.35094392 -241.28172232 210.83429062 -237 200 C-236.69852051 199.24525391 -236.39704102 198.49050781 -236.08642578 197.71289062 C-225.83293037 171.82463272 -219.26767626 144.46827799 -216.359375 116.78125 C-216 114 -216 114 -215 112 C-212.60951855 111.46276134 -210.29093934 111.05215762 -207.87109375 110.703125 C-206.35769879 110.46792322 -204.84435448 110.23239537 -203.33105469 109.99658203 C-202.53260132 109.87526917 -201.73414795 109.7539563 -200.91149902 109.62896729 C-138.17042414 100.01828652 -79.69891739 74.29429698 -32 32 C-30.54787109 30.71416016 -30.54787109 30.71416016 -29.06640625 29.40234375 C-23.24276707 24.15101439 -17.62080137 18.71732507 -12.0625 13.1875 C-11.12204834 12.25405762 -11.12204834 12.25405762 -10.16259766 11.30175781 C-7.35314299 8.48247723 -4.67358877 5.65804011 -2.18359375 2.55078125 C-1.10271484 1.28814453 -1.10271484 1.28814453 0 0 Z " fill="#FFFFFF" transform="translate(802,474)"/>
<path d="M0 0 C5.74498988 1.14899798 7.30412642 3.12189218 10.75 7.4375 C11.81270713 8.72486299 12.87651675 10.01131665 13.94140625 11.296875 C14.46105957 11.93044922 14.98071289 12.56402344 15.51611328 13.21679688 C17.50377127 15.60538752 19.58662703 17.89832383 21.6875 20.1875 C24.69814479 23.5008308 27.56565178 26.88941929 30.375 30.375 C34.05636689 34.92860712 37.92774473 39.23582516 41.91357422 43.51904297 C44.90412641 46.75176204 47.73771685 50.06687666 50.5 53.5 C54.57498953 58.56264409 58.89502743 63.3274072 63.32421875 68.078125 C66.29133605 71.31813046 69.14085341 74.66432898 72 78 C72.33 52.26 72.66 26.52 73 0 C76.96 0 80.92 0 85 0 C85 35.31 85 70.62 85 107 C79.46431946 105.89286389 77.75382587 104.14833313 74.25 100.125 C73.72414307 99.53855713 73.19828613 98.95211426 72.65649414 98.34790039 C68.72348429 93.92692703 64.98085968 89.36042011 61.27734375 84.74609375 C58.7817361 81.73681042 56.16236519 78.86059714 53.5 76 C50.04838064 72.29138312 46.73477852 68.51494105 43.5625 64.5625 C40.19652545 60.37761215 36.66813105 56.41697412 33 52.5 C28.46950374 47.65982424 24.18515248 42.7086583 20.03515625 37.53515625 C17.72707865 34.66002696 15.36032703 31.83239244 13 29 C12.67 54.74 12.34 80.48 12 107 C8.04 107 4.08 107 0 107 C0 71.69 0 36.38 0 0 Z " fill="#FFFFFF" transform="translate(1572,619)"/>
<path d="M0 0 C4.50257719 1.1256443 4.50257719 1.1256443 6.91796875 3.7734375 C7.44543701 4.34537842 7.97290527 4.91731934 8.51635742 5.5065918 C9.06783447 6.1231665 9.61931152 6.73974121 10.1875 7.375 C10.76411377 8.00768799 11.34072754 8.64037598 11.93481445 9.29223633 C16.05908805 13.85312337 19.9803216 18.55586773 23.82421875 23.35546875 C26.130317 26.15839248 28.54151531 28.83003275 31 31.5 C34.27418423 35.05670244 37.40642433 38.67161811 40.4375 42.4375 C43.65943748 46.43224789 47.00661846 50.24547626 50.5 54 C54.77523944 58.59616097 58.81478395 63.32717046 62.734375 68.234375 C65.73477468 71.89693185 68.88222435 75.43682783 72 79 C72.33 52.93 72.66 26.86 73 0 C76.63 0 80.26 0 84 0 C84 35.31 84 70.62 84 107 C78.25501012 105.85100202 76.69587358 103.87810782 73.25 99.5625 C72.18729287 98.27513701 71.12348325 96.98868335 70.05859375 95.703125 C69.53894043 95.06955078 69.01928711 94.43597656 68.48388672 93.78320312 C66.49622873 91.39461248 64.41337297 89.10167617 62.3125 86.8125 C59.30185521 83.4991692 56.43434822 80.11058071 53.625 76.625 C49.94298465 72.07059077 46.07099643 67.76252435 42.08422852 63.47875977 C39.1131325 60.26736593 36.30053412 56.97390237 33.5625 53.5625 C29.63120644 48.67321974 25.4573066 44.06839001 21.16040039 39.50219727 C18.26981646 36.42228854 15.64928781 33.31160976 13 30 C12.67 55.41 12.34 80.82 12 107 C8.04 107 4.08 107 0 107 C0 71.69 0 36.38 0 0 Z " fill="#FFFFFF" transform="translate(1021,619)"/>
<path d="M0 0 C49.41409692 0 49.41409692 0 59 8 C65.78889506 15.10005275 67.44029797 22.06459903 67.2421875 31.75 C66.60464757 40.30537453 63.43644871 46.30025325 57 52 C49.57908384 57.18848287 40.83479646 58.12976445 32 58 C37.86126704 65.90855357 43.75375117 73.77714315 49.9375 81.4375 C54.4480499 87.02826337 58.877394 92.6755838 63.25 98.375 C64.11032837 99.49152954 64.11032837 99.49152954 64.98803711 100.63061523 C65.51276611 101.31712158 66.03749512 102.00362793 66.578125 102.7109375 C67.04637695 103.32243652 67.51462891 103.93393555 67.99707031 104.56396484 C69 106 69 106 69 107 C63.93217231 107.93464035 58.96641201 108.6251062 54 107 C49.44679107 103.67102112 46.43993076 98.67682579 43.36572266 94.03076172 C41.34717464 91.02928114 39.11205494 88.21477795 36.875 85.375 C34.44921875 82.203125 34.44921875 82.203125 33.23974609 80.61914062 C31.94217368 78.92447732 30.63798148 77.23508923 29.33203125 75.546875 C28.8922998 74.97759277 28.45256836 74.40831055 27.99951172 73.82177734 C27.13692513 72.70622528 26.27271279 71.59192807 25.40673828 70.47900391 C23.21287308 67.64405714 21.17878667 64.76950629 19.25 61.75 C16.94216464 58.31272312 16.94216464 58.31272312 11 58 C11 74.17 11 90.34 11 107 C7.37 107 3.74 107 0 107 C0 71.69 0 36.38 0 0 Z M11 12 C11 23.55 11 35.1 11 47 C14.75375 47.04125 18.5075 47.0825 22.375 47.125 C23.53692871 47.14320801 24.69885742 47.16141602 25.89599609 47.18017578 C34.70952062 47.22653914 44.14663473 47.20066381 51 41 C54.69584572 35.80271695 55.7100885 31.28935531 55 25 C53.17304796 19.62661166 49.67606955 16.08721151 45 13 C41.37000207 11.77011848 37.85287159 11.88621665 34.046875 11.90234375 C32.23461426 11.90609009 32.23461426 11.90609009 30.38574219 11.90991211 C28.0910498 11.92356812 28.0910498 11.92356812 25.75 11.9375 C20.8825 11.958125 16.015 11.97875 11 12 Z " fill="#FFFFFF" transform="translate(1345,619)"/>
<path d="M0 0 C10.07825627 8.29712114 16.77489331 18.98164245 19 32 C20.45618485 47.37156561 18.85709101 61.60430783 9 74 C8.41347656 74.76054687 7.82695313 75.52109375 7.22265625 76.3046875 C-0.23487476 85.36352885 -10.3549836 91.95849816 -22 94 C-40.60706311 95.60684577 -55.56961252 93.36224676 -70.25390625 81.12109375 C-75.28949131 76.39127476 -78.84040125 71.12110354 -82 65 C-82.31839844 64.38898438 -82.63679688 63.77796875 -82.96484375 63.1484375 C-88.77490913 50.02520525 -87.84985041 33.91575006 -82.875 20.8125 C-76.73769757 7.37484948 -67.33065093 -2.36905874 -53.6328125 -8.03515625 C-35.78416612 -14.57612903 -14.97551275 -11.86609331 0 0 Z M-65.3125 14.375 C-73.71306264 24.32874818 -75.91502212 35.14204447 -75.19091797 48.01367188 C-74.30873975 57.19193524 -70.20621626 64.38598309 -64 71 C-63.40316406 71.63808594 -62.80632812 72.27617187 -62.19140625 72.93359375 C-53.97064943 80.88089504 -43.02243303 84.35294563 -31.75 84.21875 C-19.53516093 83.24711507 -9.28099487 77.87906672 -1 69 C6.7379983 58.85649353 9.13001451 47.58710603 8 35 C6.20916385 24.70269212 0.48816796 14.25984062 -8 8 C-27.95202366 -3.37835407 -48.79723661 -3.32863105 -65.3125 14.375 Z " fill="#FFFFFF" transform="translate(1748,99)"/>
<path d="M0 0 C5.53568054 1.10713611 7.24617413 2.85166687 10.75 6.875 C11.27585693 7.46144287 11.80171387 8.04788574 12.34350586 8.65209961 C16.27651571 13.07307297 20.01914032 17.63957989 23.72265625 22.25390625 C26.21826547 25.26319147 28.83766805 28.13937022 31.5 31 C35.78960407 35.60998943 39.80411122 40.37783516 43.75390625 45.28515625 C46.87170229 49.05362276 50.191284 52.6218934 53.50390625 56.21875 C56.83741066 59.93307729 59.97062274 63.7927195 63.08984375 67.6875 C65.09683764 70.19169019 65.09683764 70.19169019 68 73 C68.33 48.91 68.66 24.82 69 0 C72.63 0 76.26 0 80 0 C80 33 80 66 80 100 C74.47565644 98.89513129 73.77387188 98.19012018 70.25 94.125 C69.8180835 93.63249756 69.38616699 93.13999512 68.94116211 92.63256836 C65.3016457 88.45021784 61.82787242 84.13138326 58.34765625 79.81640625 C55.37856517 76.25448501 52.24219542 72.87195894 49.08398438 69.47851562 C46.1129881 66.26718772 43.30046168 62.97381211 40.5625 59.5625 C36.72577041 54.79232636 32.64587172 50.32372072 28.46362305 45.86035156 C24.34836504 41.44268595 20.51310883 36.86163613 16.7421875 32.14453125 C15.02838488 29.95973997 15.02838488 29.95973997 13 28 C12.67 51.76 12.34 75.52 12 100 C8.04 100 4.08 100 0 100 C0 67 0 34 0 0 Z " fill="#FFFFFF" transform="translate(1304,91)"/>
<path d="M0 0 C38.3 0 38.3 0 45.9375 6.5 C46.9584375 7.7375 46.9584375 7.7375 48 9 C48.556875 9.639375 49.11375 10.27875 49.6875 10.9375 C53.45196899 16.85309413 53.766414 23.17796924 53 30 C51.33964251 35.82471359 48.68594772 40.17725318 44 44 C43.34 44 42.68 44 42 44 C42 44.66 42 45.32 42 46 C42.66 46.04125 43.32 46.0825 44 46.125 C49.63736932 47.76923272 53.77372428 51.45102014 57.375 56 C61.48942696 63.59586516 62.30439818 71.25404346 60.3828125 79.71875 C57.84746644 86.98823781 53.35426929 92.49629516 46.65625 96.34765625 C31.72206737 103.29205117 17.36943073 100 0 100 C0 67 0 34 0 0 Z M11 10 C11 20.23 11 30.46 11 41 C25.22580779 41.41449903 25.22580779 41.41449903 36.8125 36.3125 C40.71292295 32.18919574 42 28.00688212 42 22.375 C40.57712498 17.57279681 38.28605433 14.54861745 34.0625 11.6875 C26.39405981 9.13135327 19.19750728 10 11 10 Z M11 52 C11 64.21 11 76.42 11 89 C14.444375 89.061875 17.88875 89.12375 21.4375 89.1875 C22.50411865 89.21481201 23.5707373 89.24212402 24.66967773 89.27026367 C31.70072551 89.33075839 38.36216581 88.76689783 44.12109375 84.38671875 C48.00014045 79.37964067 50 75.64068302 50 69.125 C49.15312976 64.10151969 46.67487211 60.46005704 43 57 C33.15702901 50.80125057 22.45101358 52 11 52 Z " fill="#FFFFFF" transform="translate(1786,91)"/>
<path d="M0 0 C1.57817505 0.01135986 1.57817505 0.01135986 3.18823242 0.02294922 C11.16151557 0.19176767 17.80164335 1.09921777 25.125 4.4375 C26.07117187 4.85 27.01734375 5.2625 27.9921875 5.6875 C35.2674766 9.23445535 40.94088032 14.2400236 46.125 20.4375 C46.62 21.9225 46.62 21.9225 47.125 23.4375 C44.485 25.4175 41.845 27.3975 39.125 29.4375 C35.56273589 27.65636794 33.8255366 26.32606195 31.0625 23.625 C26.21041395 19.22779702 21.23724256 16.69418746 15.125 14.4375 C14.12533203 14.06818359 14.12533203 14.06818359 13.10546875 13.69140625 C2.28053901 10.38695401 -10.51997008 11.86535796 -20.6015625 16.76171875 C-23.12206885 18.21234249 -25.49943716 19.76136245 -27.875 21.4375 C-28.51179688 21.86675781 -29.14859375 22.29601562 -29.8046875 22.73828125 C-38.46551474 29.2627711 -42.66128956 39.52997465 -44.50390625 49.921875 C-45.94348928 63.56003005 -42.47922401 75.11599163 -34.13671875 85.92578125 C-25.97957427 94.984579 -14.55213745 99.80293361 -2.4921875 100.59375 C12.12713033 101.09355574 24.3292792 96.09093499 35.125 86.4375 C36.115 84.9525 36.115 84.9525 37.125 83.4375 C41.06639078 85.10501148 43.9142812 87.66460649 47.125 90.4375 C41.59317647 100.06697059 31.22068031 106.43864699 20.7890625 109.73046875 C3.31354226 114.36840008 -14.88797225 113.95097702 -31.05859375 105.23046875 C-43.97045466 97.01057394 -52.61532576 85.40661637 -56.625 70.68359375 C-60.23625543 53.45489598 -57.31723506 37.24325087 -47.875 22.4375 C-37.28851908 6.69047824 -18.21025045 -0.18463761 0 0 Z " fill="#FFFFFF" transform="translate(1748.875,616.5625)"/>
<path d="M0 0 C48.8997093 0 48.8997093 0 57.30859375 8.03515625 C62.8318919 14.45136634 64.54721269 21.65500646 64 30 C62.50913381 38.37073495 58.97221995 43.98397619 52.375 49.3125 C46.16270854 53.37438288 38.27002718 54.15747351 31 54 C36.77958793 61.76663649 42.56967556 69.52098998 48.5625 77.125 C49.00352051 77.68493652 49.44454102 78.24487305 49.89892578 78.82177734 C52.29870333 81.86184451 54.71203263 84.89069787 57.1328125 87.9140625 C57.64384521 88.55585449 58.15487793 89.19764648 58.68139648 89.85888672 C59.66633446 91.09560735 60.65527675 92.32915217 61.64868164 93.55908203 C65 97.77480093 65 97.77480093 65 100 C60.26511452 101.08611316 55.62871692 101.7429481 51 100 C46.21169143 96.14779279 43.02627819 90.56034761 39.68261719 85.48144531 C36.86732288 81.32958064 33.73768358 77.43080335 30.625 73.5 C28.97410111 71.38496431 27.32673036 69.26723565 25.68066406 67.1484375 C24.47306888 65.60473652 23.25499795 64.06920913 22.03027344 62.5390625 C21.38864258 61.73210937 20.74701172 60.92515625 20.0859375 60.09375 C19.49603027 59.35833984 18.90612305 58.62292969 18.29833984 57.86523438 C17 56 17 56 17 54 C15.02 54 13.04 54 11 54 C11 69.18 11 84.36 11 100 C7.37 100 3.74 100 0 100 C0 67 0 34 0 0 Z M11 10 C11 20.89 11 31.78 11 43 C15.29 43.061875 19.58 43.12375 24 43.1875 C26.00513672 43.22846802 26.00513672 43.22846802 28.05078125 43.27026367 C38.54528595 43.44945178 38.54528595 43.44945178 47.54663086 38.58276367 C51.53799748 34.04071877 52.36832825 30.18343741 52.2734375 24.34765625 C51.74978499 19.85172542 49.932025 16.573357 46.421875 13.71484375 C39.04106652 9.07690329 30.47431856 9.87014823 22.0625 9.9375 C18.411875 9.958125 14.76125 9.97875 11 10 Z " fill="#FFFFFF" transform="translate(1582,91)"/>
<path d="M0 0 C1.32 0 2.64 0 4 0 C14.24061507 21.49244821 24.4514199 42.99523869 34.43212891 64.60986328 C36.13070979 68.28262786 37.83591062 71.95226422 39.54296875 75.62109375 C40.13753644 76.89941225 40.73210028 78.17773255 41.32666016 79.45605469 C42.44690913 81.8645004 43.56776545 84.27266033 44.68896484 86.68066406 C46.13159893 89.78455491 47.56840984 92.89100162 49 96 C49.41491699 96.89928223 49.82983398 97.79856445 50.25732422 98.72509766 C50.62486816 99.53382324 50.99241211 100.34254883 51.37109375 101.17578125 C51.68876709 101.87227783 52.00644043 102.56877441 52.33374023 103.28637695 C53 105 53 105 53 107 C48.71 107 44.42 107 40 107 C38.2020948 103.2836453 36.40516207 99.56684298 34.6105957 95.84887695 C34.00112219 94.58689121 33.39110688 93.32516697 32.78051758 92.0637207 C31.89778806 90.23979798 31.01707787 88.41491157 30.13671875 86.58984375 C29.60780029 85.49534912 29.07888184 84.40085449 28.53393555 83.27319336 C26.94556774 79.88384955 25.47446702 76.44042304 24 73 C9.15 72.67 -5.7 72.34 -21 72 C-21.99 74.97 -22.98 77.94 -24 81 C-24.91754326 83.12344828 -25.87568549 85.2300463 -26.8828125 87.3125 C-27.41003906 88.40691406 -27.93726563 89.50132812 -28.48046875 90.62890625 C-29.29451172 92.29759766 -29.29451172 92.29759766 -30.125 94 C-30.95064453 95.71509766 -30.95064453 95.71509766 -31.79296875 97.46484375 C-35.85183252 105.85183252 -35.85183252 105.85183252 -37 107 C-39.18639453 107.07258946 -41.37500389 107.08373783 -43.5625 107.0625 C-44.76003906 107.05347656 -45.95757813 107.04445313 -47.19140625 107.03515625 C-48.58166016 107.01775391 -48.58166016 107.01775391 -50 107 C-48.73516196 102.99449544 -47.26513075 99.2629958 -45.41796875 95.4921875 C-44.90492187 94.43773437 -44.391875 93.38328125 -43.86328125 92.296875 C-43.31027344 91.16765625 -42.75726562 90.0384375 -42.1875 88.875 C-41.00091007 86.43634389 -39.81813082 83.99585577 -38.63671875 81.5546875 C-38.18273209 80.61698517 -38.18273209 80.61698517 -37.71957397 79.66033936 C-34.57158976 73.14151219 -31.53166398 66.57361719 -28.5 60 C-23.13037827 48.37110064 -17.61149799 36.82002113 -12.03515625 25.2890625 C-7.97152258 16.88393987 -3.98062149 8.44467764 0 0 Z M1 26 C-1.28364051 30.66066127 -3.56216649 35.32377358 -5.8359375 39.98925781 C-6.6105683 41.57686105 -7.38660544 43.16377888 -8.1640625 44.75 C-9.27972761 47.02686758 -10.39035276 49.30613225 -11.5 51.5859375 C-11.84998047 52.29744965 -12.19996094 53.00896179 -12.56054688 53.74203491 C-14.37664513 57.21028626 -14.37664513 57.21028626 -15 61 C-3.78 61 7.44 61 19 61 C13.75138668 49.2915549 8.46930264 37.6068802 3 26 C2.34 26 1.68 26 1 26 Z " fill="#FFFFFF" transform="translate(1489,619)"/>
<path d="M0 0 C5.55816743 1.11163349 5.91859066 1.55151116 9.125 5.8125 C12.42962166 10.05580987 15.82373987 14.07579413 19.5 18 C23.77081433 22.58599541 27.75770595 27.33457739 31.6875 32.21875 C34.19971133 35.24019336 36.82402457 38.12440078 39.5 41 C42.99346621 44.75443411 46.34057114 48.56776281 49.5625 52.5625 C54.17334778 58.21241207 59.09449365 63.60394301 64 69 C64.33 46.23 64.66 23.46 65 0 C68.63 0 72.26 0 76 0 C76 31.68 76 63.36 76 96 C74.68 96 73.36 96 72 96 C70.0625 94.05078125 70.0625 94.05078125 68 91.3125 C64.50863532 86.83918901 60.89067469 82.62925671 57 78.5 C52.53974019 73.74061486 48.36190415 68.83517533 44.27734375 63.74609375 C41.78173453 60.73680853 39.16233195 57.86062978 36.5 55 C33.00651265 51.24558828 29.6594267 47.43223452 26.4375 43.4375 C21.82665222 37.78758793 16.90550635 32.39605699 12 27 C11.67 49.77 11.34 72.54 11 96 C7.37 96 3.74 96 0 96 C0 64.32 0 32.64 0 0 Z " fill="#FFFFFF" transform="translate(1452,432)"/>
<path d="M0 0 C20.46 0 40.92 0 62 0 C62 3.96 62 7.92 62 12 C45.17 12 28.34 12 11 12 C11 22.56 11 33.12 11 44 C27.5 44 44 44 61 44 C61 47.63 61 51.26 61 55 C44.5 55 28 55 11 55 C11 68.53 11 82.06 11 96 C27.5 96 44 96 61 96 C61 99.63 61 103.26 61 107 C40.87 107 20.74 107 0 107 C0 71.69 0 36.38 0 0 Z " fill="#FFFFFF" transform="translate(1831,619)"/>
<path d="M0 0 C35.7761194 0 35.7761194 0 43.62890625 7.5703125 C48.59953108 12.91223702 50.54299007 18.41581915 50.3125 25.8203125 C49.46462388 31.73424844 47.39721198 37.23764022 42.75 41.125 C41.38875 42.053125 41.38875 42.053125 40 43 C41.10408203 43.61875 41.10408203 43.61875 42.23046875 44.25 C49.74458711 48.6969287 54.21944202 52.65832605 57 61 C57.70155564 70.69526896 57.69211016 78.11662871 51.4921875 85.890625 C46.03856503 91.92765825 39.86634693 94.42673061 32 96 C21.44 96 10.88 96 0 96 C0 64.32 0 32.64 0 0 Z M10 10 C10 19.9 10 29.8 10 40 C24.09609025 40.39335285 24.09609025 40.39335285 35.66015625 33.5703125 C38.41971294 30.33607988 38.91993103 27.73396555 39.375 23.5625 C38.91860557 19.22675288 37.83911174 17.28739254 35 14 C27.10889683 9.02517409 19.28792169 10 10 10 Z M10 50 C10 61.55 10 73.1 10 85 C15.2284375 85.0928125 15.2284375 85.0928125 20.5625 85.1875 C21.64732666 85.21481201 22.73215332 85.24212402 23.84985352 85.27026367 C31.15743087 85.33277905 35.96082828 84.48659505 41.75 79.75 C44.78478554 76.04081767 47.06858954 72.76317875 46.9453125 67.796875 C45.97117185 61.95203108 43.51670863 57.82103167 39 54 C29.79878118 48.88821177 20.40852967 50 10 50 Z " fill="#FFFFFF" transform="translate(1674,432)"/>
<path d="M0 0 C3.96 0 7.92 0 12 0 C12.00364563 0.98003998 12.00729126 1.96007996 12.01104736 2.96981812 C12.04810336 12.23806954 12.1059912 21.50599196 12.18390274 30.77399254 C12.22329182 35.53798102 12.25552215 40.30178702 12.27099609 45.06591797 C12.28621936 49.66974309 12.32076466 54.27306627 12.36830902 58.87666702 C12.3830646 60.62674199 12.39103765 62.37688864 12.39188385 64.1270256 C12.1010029 79.28498947 12.1010029 79.28498947 19.11328125 92.21875 C27.18585265 96.92177561 33.69959828 99.00853746 43 97 C49.71873741 94.67206697 53.09828041 91.23996672 56.6875 85.125 C59.09527185 79.39220989 59.13269894 73.47279001 59.20532227 67.32055664 C59.21522186 66.58801666 59.22512146 65.85547668 59.23532104 65.10073853 C59.26665225 62.70390949 59.29157991 60.30706071 59.31640625 57.91015625 C59.33700036 56.23863744 59.35799744 54.56712355 59.37937927 52.89561462 C59.43434636 48.51451626 59.48386657 44.13337288 59.53222656 39.75219727 C59.58262779 35.27421097 59.63821627 30.79628934 59.69335938 26.31835938 C59.80063033 17.54562773 59.90214313 8.77284168 60 0 C63.63 0 67.26 0 71 0 C71.09313461 10.20610626 71.16398385 20.41210958 71.20724869 30.61855602 C71.22802528 35.3590578 71.25615892 40.09926646 71.30175781 44.83959961 C71.34557303 49.42377368 71.36921154 54.0076678 71.37950897 58.59203529 C71.38683689 60.33134677 71.40114451 62.07064484 71.42292023 63.80983543 C71.57406152 76.39442461 71.24710247 89.1666108 62.68359375 99.2890625 C55.16181396 106.93300577 47.12174569 110.05698297 36.375 110.3125 C25.39592566 109.95329842 15.96554927 106.78853707 8 99 C-1.27304354 86.59313011 -0.14663371 72.39338646 -0.09765625 57.6171875 C-0.09578772 55.94996178 -0.09436587 54.2827355 -0.09336853 52.61550903 C-0.0895776 48.25905807 -0.07977715 43.90264123 -0.06866455 39.54620361 C-0.05837622 35.08809877 -0.05385511 30.62998833 -0.04882812 26.171875 C-0.03815131 17.44790113 -0.02111677 8.72395483 0 0 Z " fill="#FFFFFF" transform="translate(1233,619)"/>
<path d="M0 0 C3.63 0 7.26 0 11 0 C11 13.53 11 27.06 11 41 C27.17 41 43.34 41 60 41 C60 27.47 60 13.94 60 0 C63.63 0 67.26 0 71 0 C71 33 71 66 71 100 C67.37 100 63.74 100 60 100 C60 84.16 60 68.32 60 52 C43.83 52 27.66 52 11 52 C11 67.84 11 83.68 11 100 C7.37 100 3.74 100 0 100 C0 67 0 34 0 0 Z " fill="#FFFFFF" transform="translate(1056,91)"/>
<path d="M0 0 C1.65 0 3.3 0 5 0 C20.81152344 33.88183594 20.81152344 33.88183594 21.68829346 35.76065063 C22.26570445 36.99794537 22.8431377 38.23522972 23.42059326 39.47250366 C24.85578879 42.54766877 26.29059324 45.62301519 27.72460938 48.69873047 C30.43672157 54.51469591 33.15251579 60.32885571 35.88116455 66.13708496 C37.15722763 68.85390585 38.43122679 71.57169229 39.70507812 74.28955078 C40.30789321 75.57421244 40.9116985 76.85841002 41.51660156 78.14208984 C44.91298342 85.35030726 48.12512977 92.56740867 51 100 C47.04 100 43.08 100 39 100 C37.45392214 97.10645112 35.91313198 94.21027014 34.375 91.3125 C33.73498047 90.11657227 33.73498047 90.11657227 33.08203125 88.89648438 C29.43996468 82.02004526 26.27632685 75.09870817 23 68 C9.14 67.67 -4.72 67.34 -19 67 C-19.66 68.98 -20.32 70.96 -21 73 C-21.89980291 75.09195392 -22.8298773 77.17107091 -23.78515625 79.23828125 C-24.58083008 80.96208008 -24.58083008 80.96208008 -25.39257812 82.72070312 C-25.94365234 83.90599609 -26.49472656 85.09128906 -27.0625 86.3125 C-27.62328716 87.52918615 -28.18383623 88.74598207 -28.74414062 89.96289062 C-32.86746652 98.86746652 -32.86746652 98.86746652 -34 100 C-36.01964199 100.07244053 -38.04167124 100.08377188 -40.0625 100.0625 C-41.16722656 100.05347656 -42.27195312 100.04445313 -43.41015625 100.03515625 C-44.26480469 100.02355469 -45.11945313 100.01195312 -46 100 C-45.36947041 95.81376855 -43.94833788 92.50182968 -42.078125 88.71484375 C-41.63401779 87.8079052 -41.63401779 87.8079052 -41.18093872 86.88264465 C-40.54236288 85.57947661 -39.90129747 84.27752613 -39.25799561 82.97668457 C-37.53161234 79.48419501 -35.82483979 75.98214527 -34.1171875 72.48046875 C-33.76882843 71.76702301 -33.42046936 71.05357727 -33.06155396 70.31851196 C-29.741792 63.50373403 -26.54552391 56.63554552 -23.375 49.75 C-18.46558727 39.09914789 -13.43570136 28.51486472 -8.31201172 17.96582031 C-5.43031254 12.02271688 -2.62864659 6.05966131 0 0 Z M2 23 C-0.28113283 27.68018992 -2.55972742 32.36160337 -4.8359375 37.04418945 C-5.61127503 38.63828212 -6.38731557 40.23203306 -7.1640625 41.82543945 C-8.27787589 44.11060378 -9.38918781 46.39696935 -10.5 48.68359375 C-10.84998047 49.40026718 -11.19996094 50.11694061 -11.56054688 50.85533142 C-13.25445363 53.80115039 -13.25445363 53.80115039 -14 57 C-3.44 57 7.12 57 18 57 C16.15837269 51.47511807 14.57128598 46.76468411 12.08203125 41.65234375 C11.55029297 40.55341797 11.01855469 39.45449219 10.47070312 38.32226562 C9.64989258 36.64680664 9.64989258 36.64680664 8.8125 34.9375 C8.25369141 33.78572266 7.69488281 32.63394531 7.11914062 31.44726562 C5.75097933 28.62908723 4.37784257 25.8134543 3 23 C2.67 23 2.34 23 2 23 Z " fill="#FFFFFF" transform="translate(1458,91)"/>
<path d="M0 0 C19.14 0 38.28 0 58 0 C58 3.3 58 6.6 58 10 C42.49 10 26.98 10 11 10 C11 19.9 11 29.8 11 40 C26.51 40 42.02 40 58 40 C58 43.63 58 47.26 58 51 C42.49 51 26.98 51 11 51 C11 63.54 11 76.08 11 89 C26.51 89 42.02 89 58 89 C58 92.63 58 96.26 58 100 C38.86 100 19.72 100 0 100 C0 67 0 34 0 0 Z " fill="#FFFFFF" transform="translate(1164,91)"/>
<path d="M0 0 C6.42869568 3.4091568 11.93192672 8.59277727 16.125 14.5 C14.63514431 18.29235994 12.53841953 20.30565887 9.125 22.5 C5.3224387 22.20510749 3.63710493 20.27576958 1.125 17.5625 C-2.19401128 13.99067341 -4.54934214 11.76687877 -9.49609375 11.19921875 C-16.80031823 10.96604346 -16.80031823 10.96604346 -22.875 14.5 C-25.38428979 18.54724159 -26.24215354 21.21544614 -25.5 25.9375 C-22.75478455 35.41806965 -14.500465 40.44141966 -6.93554688 46.00048828 C4.45980204 54.37770973 15.02233651 63.04675926 18.125 77.5 C19.19691002 85.22668474 16.86449561 92.32261057 12.5 98.6875 C7.29060092 105.14767064 0.41405835 109.52390528 -7.875 110.5 C-18.29567888 111.44421308 -26.75232953 109.20812441 -34.83203125 102.47265625 C-37.96466967 99.4478333 -40.47420037 96.12087812 -42.875 92.5 C-43.535 91.51 -44.195 90.52 -44.875 89.5 C-44.9375 87.5625 -44.9375 87.5625 -43.875 85.5 C-41.60857606 83.74946284 -39.51820734 82.73045859 -36.875 81.5 C-33.25754849 82.70581717 -32.92385713 83.63553592 -31 86.8125 C-27.09740699 92.83337089 -23.16369821 96.01037479 -16.2734375 98.08203125 C-11.27820888 98.95253526 -7.05083981 97.92154868 -2.82421875 95.16015625 C1.02437222 92.02869403 3.62993979 89.25615253 4.53125 84.23828125 C4.81005035 77.02432212 2.8738006 72.86540843 -1.875 67.5 C-7.35174828 61.92481343 -13.34029138 57.07688674 -19.5625 52.375 C-27.94003049 46.03415226 -36.05802609 39.8042437 -38.40234375 29.08984375 C-39.45942889 21.40519114 -38.70072989 14.7259939 -34.25 8.25 C-26.12092124 -1.75655641 -11.9691411 -4.81736708 0 0 Z " fill="#FFFFFF" transform="translate(1178.875,618.5)"/>
<path d="M0 0 C1.32 0 2.64 0 4 0 C19.81152344 33.88183594 19.81152344 33.88183594 20.68826294 35.7605896 C21.2657712 36.99808987 21.84330618 38.23557767 22.42086792 39.47305298 C23.85461164 42.54505669 25.28788831 45.61727664 26.72021484 48.68994141 C29.44962161 54.54387035 32.1836916 60.39549788 34.93273926 66.24023438 C36.22848588 68.99579475 37.52180612 71.75249074 38.81494141 74.50927734 C39.43124235 75.82137079 40.04872778 77.13290862 40.66748047 78.44384766 C41.52612362 80.26323016 42.38033732 82.0847011 43.234375 83.90625 C43.72131836 84.94072266 44.20826172 85.97519531 44.70996094 87.04101562 C45.99353516 89.98517148 47.03322719 92.938743 48 96 C44.04 96 40.08 96 36 96 C34.00119778 91.90898649 32.00750698 87.81553794 30.01855469 83.71972656 C29.34092606 82.32613748 28.66189476 80.93322955 27.98144531 79.54101562 C27.00478259 77.54213157 26.03315656 75.54086863 25.0625 73.5390625 C24.75626709 72.91504547 24.45003418 72.29102844 24.13452148 71.64810181 C22 67.22774341 22 67.22774341 22 65 C8.47 65 -5.06 65 -19 65 C-19.99 67.97 -20.98 70.94 -22 74 C-22.77516485 75.8299373 -23.58488249 77.64607284 -24.4453125 79.4375 C-24.88230469 80.35144531 -25.31929687 81.26539063 -25.76953125 82.20703125 C-26.21683594 83.12871094 -26.66414063 84.05039062 -27.125 85 C-27.58003906 85.95261719 -28.03507812 86.90523437 -28.50390625 87.88671875 C-31.85278589 94.85278589 -31.85278589 94.85278589 -33 96 C-36.99984478 96.14346646 -40.99829982 96.04212316 -45 96 C-41.63617265 87.67229467 -37.9460586 79.56617259 -34 71.5 C-32.84216391 69.11403064 -31.68542935 66.72757917 -30.53125 64.33984375 C-30.09117615 63.42965736 -30.09117615 63.42965736 -29.64221191 62.50108337 C-26.53082392 56.05132399 -23.50822659 49.56094688 -20.5 43.0625 C-19.9730957 41.92449951 -19.44619141 40.78649902 -18.90332031 39.61401367 C-16.96741517 35.42828078 -15.03442451 31.24120623 -13.10180664 27.05395508 C-11.27810116 23.10315772 -9.45258299 19.15320743 -7.62475586 15.20431519 C-6.76432919 13.34348943 -5.90652682 11.48146912 -5.04882812 9.61938477 C-4.53255859 8.50362061 -4.01628906 7.38785645 -3.484375 6.23828125 C-3.02772461 5.24868408 -2.57107422 4.25908691 -2.10058594 3.23950195 C-1 1 -1 1 0 0 Z M1 23 C-0.99880222 27.09101351 -2.99249302 31.18446206 -4.98144531 35.28027344 C-5.65907394 36.67386252 -6.33810524 38.06677045 -7.01855469 39.45898438 C-7.99521741 41.45786843 -8.96684344 43.45913137 -9.9375 45.4609375 C-10.24373291 46.08495453 -10.54996582 46.70897156 -10.86547852 47.35189819 C-12.48427779 50.53023687 -12.48427779 50.53023687 -13 54 C-3.43 54 6.14 54 16 54 C13.64637258 46.93911774 11.13026917 40.64579317 7.9375 34 C7.49083984 33.04738281 7.04417969 32.09476562 6.58398438 31.11328125 C6.15279297 30.20964844 5.72160156 29.30601562 5.27734375 28.375 C4.88796631 27.55773437 4.49858887 26.74046875 4.09741211 25.8984375 C3.14037266 23.84079246 3.14037266 23.84079246 1 23 Z " fill="#FFFFFF" transform="translate(1335,432)"/>
<path d="M0 0 C1.32 0 2.64 0 4 0 C12.10319316 17.18108874 20.1989263 34.36507272 28.17749023 51.60449219 C31.06117523 57.83350374 33.9613747 64.05425874 36.8828125 70.265625 C37.85553008 72.33712238 38.82802107 74.40872602 39.80047607 76.48034668 C40.42780866 77.81469361 41.05640712 79.14844622 41.68634033 80.48156738 C42.55969608 82.32998584 43.42869443 84.18039649 44.296875 86.03125 C44.79541992 87.08892578 45.29396484 88.14660156 45.80761719 89.23632812 C47 92 47 92 48 96 C44.04 96 40.08 96 36 96 C34.00119778 91.90898649 32.00750698 87.81553794 30.01855469 83.71972656 C29.34092606 82.32613748 28.66189476 80.93322955 27.98144531 79.54101562 C27.00478259 77.54213157 26.03315656 75.54086863 25.0625 73.5390625 C24.75626709 72.91504547 24.45003418 72.29102844 24.13452148 71.64810181 C22 67.22774341 22 67.22774341 22 65 C8.47 65 -5.06 65 -19 65 C-19.99 67.97 -20.98 70.94 -22 74 C-22.77516485 75.8299373 -23.58488249 77.64607284 -24.4453125 79.4375 C-24.88230469 80.35144531 -25.31929687 81.26539063 -25.76953125 82.20703125 C-26.21683594 83.12871094 -26.66414063 84.05039062 -27.125 85 C-27.58003906 85.95261719 -28.03507812 86.90523437 -28.50390625 87.88671875 C-31.85278589 94.85278589 -31.85278589 94.85278589 -33 96 C-34.85287502 96.07226502 -36.70833878 96.0838122 -38.5625 96.0625 C-40.08037109 96.04896484 -40.08037109 96.04896484 -41.62890625 96.03515625 C-42.41136719 96.02355469 -43.19382812 96.01195312 -44 96 C-43.3738814 92.10227866 -42.18758428 88.90581245 -40.515625 85.3359375 C-39.99935547 84.22798828 -39.48308594 83.12003906 -38.95117188 81.97851562 C-38.1090918 80.19477539 -38.1090918 80.19477539 -37.25 78.375 C-36.66179107 77.11928968 -36.07390582 75.86342769 -35.48632812 74.60742188 C-31.02937008 65.1006326 -26.47435901 55.6413285 -21.89770508 46.19165039 C-17.26363551 36.60428316 -12.76794038 26.95646072 -8.3125 17.28515625 C-5.63181691 11.47359901 -2.90397422 5.70348894 0 0 Z M1 23 C-0.99624403 27.25301611 -2.99000839 31.50718204 -4.98144531 35.76245117 C-5.65979423 37.21101553 -6.33882945 38.6592587 -7.01855469 40.10717773 C-7.99332789 42.18389936 -8.96565752 44.26174934 -9.9375 46.33984375 C-10.24373291 46.99089584 -10.54996582 47.64194794 -10.86547852 48.31272888 C-12.36006047 51.04412581 -12.36006047 51.04412581 -13 54 C-3.1 54 6.8 54 17 54 C10.07827078 38.20937899 10.07827078 38.20937899 2 23 C1.67 23 1.34 23 1 23 Z " fill="#FFFFFF" transform="translate(1599,432)"/>
<path d="M0 0 C18.48 0 36.96 0 56 0 C56 3.3 56 6.6 56 10 C41.15 10 26.3 10 11 10 C11 19.57 11 29.14 11 39 C25.52 39 40.04 39 55 39 C55 42.3 55 45.6 55 49 C40.48 49 25.96 49 11 49 C11 60.88 11 72.76 11 85 C25.52 85 40.04 85 55 85 C55 88.63 55 92.26 55 96 C36.85 96 18.7 96 0 96 C0 64.32 0 32.64 0 0 Z " fill="#FFFFFF" transform="translate(1836,432)"/>
<path d="M0 0 C3.63 0 7.26 0 11 0 C11.00364563 0.88203598 11.00729126 1.76407196 11.01104736 2.6728363 C11.04902644 11.01430887 11.10599121 19.35539439 11.18390274 27.69659328 C11.22329184 31.98418573 11.25552203 36.27157543 11.27099609 40.55932617 C11.28621955 44.70281988 11.32076461 48.8457559 11.36830902 52.98900032 C11.38306451 54.56405838 11.39103765 56.13919609 11.39188385 57.71432304 C11.25285229 69.94561104 11.25285229 69.94561104 16 81 C21.44903495 85.61983398 27.4668409 87.59101355 34.5625 87.36328125 C40.24644052 86.5161555 45.17541834 84.39659009 48.70703125 79.7578125 C53.9407862 70.0746117 53.18246409 59.07004533 53.31640625 48.33984375 C53.3370205 46.94022572 53.35801799 45.54061329 53.37937927 44.14100647 C53.43413897 40.48658835 53.48374822 36.83211843 53.53222656 33.1776123 C53.58278189 29.43672161 53.6382889 25.69590459 53.69335938 21.95507812 C53.80037555 14.63678144 53.901942 7.31842279 54 0 C57.3 0 60.6 0 64 0 C64.06988883 8.78919382 64.12300682 17.57829017 64.15543652 26.36770248 C64.17101078 30.45015108 64.1920959 34.53240785 64.22631836 38.61474609 C64.25920907 42.56348778 64.27691475 46.51204638 64.28463173 50.46091461 C64.29012248 51.95821255 64.30084251 53.45550188 64.31719017 54.95272064 C64.44152031 66.82510494 64.15465223 79.55665921 56 89 C47.76418205 96.75863537 39.94485948 98.6106378 28.7578125 98.34375 C19.5596854 97.50234128 12.04846253 94.07555994 6 87 C-1.16325452 75.67206261 -0.14757614 62.64300568 -0.09765625 49.70703125 C-0.09578639 48.26543731 -0.09436518 46.82384273 -0.09336853 45.38224792 C-0.08958803 41.62586651 -0.07979705 37.86952504 -0.06866455 34.11315918 C-0.05835324 30.26489807 -0.05385029 26.41663038 -0.04882812 22.56835938 C-0.03816981 15.0455549 -0.02114852 7.52278309 0 0 Z " fill="#FFFFFF" transform="translate(1062,432)"/>
<path d="M0 0 C5.10687575 2.93017461 9.65812492 6.97715264 12.6875 12.0625 C12.46240798 15.29671695 11.73097462 16.01902538 9.375 18.375 C6.6875 20.0625 6.6875 20.0625 4.70703125 19.8828125 C2.2370083 18.87951498 1.29822218 17.73031893 -0.3125 15.625 C-3.02219009 12.09798491 -5.23459637 10.35306864 -9.71484375 9.7265625 C-13.83889509 9.6630178 -16.60254637 9.69273248 -20.3125 11.625 C-22.90818659 14.78849304 -23.76156536 16.999357 -24.3125 21.0625 C-21.70027516 29.47966893 -16.44129818 33.97812634 -9.5625 38.9375 C-8.12092668 40.0019194 -6.68080474 41.06830743 -5.2421875 42.13671875 C-4.55866211 42.64380371 -3.87513672 43.15088867 -3.17089844 43.67333984 C4.8217418 49.64786992 12.64374957 56.84374787 14.6875 67.0625 C15.54068979 75.58106685 14.37786142 82.11917768 9.21484375 89.03515625 C4.07193669 94.7616556 -1.91934656 97.54471642 -9.52734375 98.44140625 C-18.95231253 98.78233278 -25.33138099 96.72880231 -32.5625 90.75 C-36.0804563 87.46469412 -38.87791102 84.22486181 -41.3125 80.0625 C-41.1171875 77.99609375 -41.1171875 77.99609375 -40.3125 76.0625 C-35.09027778 72.0625 -35.09027778 72.0625 -32.3125 72.0625 C-31.17085088 73.60431479 -30.09851564 75.19780896 -29.0625 76.8125 C-25.76225224 81.61347771 -23.0477773 85.08927179 -17.18359375 86.6171875 C-11.77767908 87.51359975 -8.16753311 86.8232051 -3.3125 84.0625 C-0.08472699 81.44538675 1.67548463 79.11056148 2.6875 75.0625 C2.40631128 66.20505545 -1.64768501 61.32245518 -7.83203125 55.27734375 C-11.76291288 51.76740692 -15.94712753 48.61279779 -20.1640625 45.45703125 C-29.56168669 38.30970665 -29.56168669 38.30970665 -32.125 33.9375 C-32.52332031 33.27492188 -32.92164063 32.61234375 -33.33203125 31.9296875 C-36.46937751 25.95498027 -36.38592096 18.07166262 -34.6640625 11.640625 C-31.9794437 5.72069636 -27.50299492 1.34133474 -21.4765625 -1.07421875 C-14.33324769 -3.02319723 -6.81875289 -3.05631892 0 0 Z " fill="#FFFFFF" transform="translate(1193.3125,431.9375)"/>
<path d="M0 0 C4.97936642 3.01326466 10.78282985 7.16311846 13.5625 12.375 C13.625 14.375 13.625 14.375 12.5625 16.375 C9.6875 18.6875 9.6875 18.6875 6.5625 20.375 C2.74360838 19.10203613 1.58022913 17.15764601 -0.83984375 14.06640625 C-3.26834385 11.49540247 -5.3259665 10.49790127 -8.83984375 10.109375 C-15.46789054 9.95785421 -15.46789054 9.95785421 -21.4375 12.375 C-23.76827583 16.9306073 -23.66401507 20.46893971 -22.4375 25.375 C-18.88954888 32.79344326 -11.44125716 37.34776897 -5.03515625 42.19140625 C4.32761713 49.28341913 11.77362448 56.00837344 15.5625 67.375 C16.47981635 75.57069527 14.94560105 82.68173249 10.08984375 89.41796875 C4.97767579 95.08606987 -1.08202618 97.85598162 -8.6171875 98.75390625 C-16.96752156 99.05844785 -24.09598775 97.91141379 -30.69140625 92.5390625 C-40.26324061 83.33740958 -40.26324061 83.33740958 -40.5625 78.25 C-38.80938639 75.32814398 -36.34999292 74.03928167 -33.4375 72.375 C-32.7775 72.375 -32.1175 72.375 -31.4375 72.375 C-30.10546875 74.203125 -30.10546875 74.203125 -28.625 76.625 C-25.24638714 81.84872911 -21.65330336 85.82104916 -15.4375 87.375 C-10.14582788 87.375 -5.66455591 86.75664472 -1.4375 83.375 C2.32113338 79.61636662 3.47074169 76.69698182 3.5625 71.375 C0.07294748 59.37966321 -11.6105641 51.43057105 -21.22265625 44.3125 C-28.37550187 38.96135154 -33.64639875 33.8318663 -34.97265625 24.68359375 C-35.23142754 18.00198622 -35.10728614 12.38164301 -30.9296875 6.953125 C-22.88693231 -1.55282551 -11.23336514 -5.28628948 0 0 Z " fill="#FFFFFF" transform="translate(1014.4375,431.625)"/>
<path d="M0 0 C7.05039322 6.06564291 13.29134271 13.43029283 14.35058594 23.01831055 C15.00270209 35.37646906 14.11661771 44.51717109 6.00390625 54.32421875 C-0.82821957 61.44707333 -9.03940995 65.19605313 -18.87109375 66.01171875 C-30.32055164 66.13176549 -39.40703572 62.74365361 -47.87109375 55.01171875 C-55.38372716 46.97218119 -57.37316957 38.791955 -57.29296875 27.96484375 C-56.95430796 18.50016602 -53.30313328 10.88734722 -46.87109375 4.01171875 C-33.95897265 -7.5855224 -14.75359616 -10.21711626 0 0 Z M-43.3984375 12.015625 C-48.93600339 19.52145039 -50.12867558 27.88302209 -48.87109375 37.01171875 C-46.36093962 45.56796527 -40.49922056 51.7017115 -32.8984375 56.171875 C-25.7348486 59.33444505 -17.80212463 59.00378055 -10.55859375 56.32421875 C-2.59176952 52.6937672 1.47165975 47.79247424 5.12890625 40.01171875 C7.54905808 32.75126327 7.29783929 23.3994485 4.06640625 16.44921875 C-0.23464928 9.18441067 -6.69616878 4.22550327 -14.87109375 2.01171875 C-26.29154861 0.47848328 -35.5845248 3.42586281 -43.3984375 12.015625 Z " fill="#FFFFFF" transform="translate(1597.87109375,280.98828125)"/>
<path d="M0 0 C7.50769536 6.26154101 13.87340936 13.28315992 14.97314453 23.35644531 C15.8266196 35.65825837 14.67829462 44.88977836 6.625 54.625 C-0.20712582 61.74785458 -8.4183162 65.49683438 -18.25 66.3125 C-29.69945789 66.43254674 -38.78594197 63.04443486 -47.25 55.3125 C-54.76263341 47.27296244 -56.75207582 39.09273625 -56.671875 28.265625 C-56.33321421 18.80094727 -52.68203953 11.18812847 -46.25 4.3125 C-33.72466237 -6.937345 -14.35734806 -10.15249853 0 0 Z M-44.25 14.3125 C-48.98898805 21.35770182 -49.30287963 29.04927501 -48.25 37.3125 C-45.80087951 45.8726471 -39.85747716 52.01463719 -32.27734375 56.47265625 C-25.07213738 59.65359952 -17.14149221 59.29824781 -9.875 56.5625 C-2.37205929 53.16069276 2.76477556 48.20984809 5.87109375 40.546875 C7.79359817 33.47205875 8.2883912 24.50216903 5.0625 17.75 C4.32763109 16.58077558 3.5582592 15.43224779 2.75 14.3125 C2.09 13.28125 1.43 12.25 0.75 11.1875 C-3.94987507 5.97178499 -10.7387685 2.89495134 -17.5703125 1.76171875 C-28.60572773 1.30517084 -37.52852649 5.52288079 -44.25 14.3125 Z " fill="#FFFFFF" transform="translate(1801.25,280.6875)"/>
<path d="M0 0 C39.48974943 0 39.48974943 0 49.82421875 9.71484375 C56.06783249 17.15370848 58.83244684 27.57906124 58.37109375 37.18359375 C56.95502231 47.93083068 53.43282795 55.97264337 45 63 C31.59998546 71.2868511 15.02840959 68 0 68 C0 45.56 0 23.12 0 0 Z M8 7 C8 24.82 8 42.64 8 61 C27.68342332 61.53633733 27.68342332 61.53633733 44 53 C49.65835156 45.72497657 51.01402841 38.01495985 50 29 C47.93621741 21.5001715 44.81002866 15.60350172 38.1875 11.3125 C29.00788556 6.4954746 18.06690788 7 8 7 Z " fill="#FFFFFF" transform="translate(973,277)"/>
<path d="M0 0 C18.48 0 36.96 0 56 0 C56 3.3 56 6.6 56 10 C48.41 10 40.82 10 33 10 C33 39.7 33 69.4 33 100 C29.37 100 25.74 100 22 100 C22 70.3 22 40.6 22 10 C14.74 10 7.48 10 0 10 C0 6.7 0 3.4 0 0 Z " fill="#FFFFFF" transform="translate(973,91)"/>
<path d="M0 0 C4.56258484 1.14064621 6.22828201 2.99363368 9.1875 6.375 C9.67089844 6.91447266 10.15429688 7.45394531 10.65234375 8.00976562 C14.46799033 12.30236802 18.08748178 16.74444164 21.6875 21.21875 C24.63414108 24.76268319 27.75263438 28.12300694 30.89208984 31.49536133 C34.89510621 35.82170369 38.62633591 40.3235032 42.3203125 44.91796875 C43.83273177 46.86818205 43.83273177 46.86818205 45 48 C45.33 32.16 45.66 16.32 46 0 C48.64 0 51.28 0 54 0 C54 22.44 54 44.88 54 68 C50.00193394 67.00048348 49.49767807 66.87068133 47.08203125 63.97265625 C46.55448242 63.35036133 46.02693359 62.72806641 45.48339844 62.08691406 C44.65630371 61.0848291 44.65630371 61.0848291 43.8125 60.0625 C42.6479548 58.68290168 41.48258821 57.30399629 40.31640625 55.92578125 C39.4658667 54.91378662 39.4658667 54.91378662 38.59814453 53.88134766 C36.536075 51.45386403 34.40125431 49.09854748 32.25 46.75 C29.24239392 43.43560714 26.37570304 40.04340917 23.5625 36.5625 C18.90038721 30.87855427 13.94506174 25.43956791 9 20 C8.67 35.84 8.34 51.68 8 68 C5.36 68 2.72 68 0 68 C0 45.56 0 23.12 0 0 Z " fill="#FFFFFF" transform="translate(1838,277)"/>
<path d="M0 0 C4.56258484 1.14064621 6.22828201 2.99363368 9.1875 6.375 C9.67089844 6.91447266 10.15429688 7.45394531 10.65234375 8.00976562 C14.46799033 12.30236802 18.08748178 16.74444164 21.6875 21.21875 C24.63414108 24.76268319 27.75263438 28.12300694 30.89208984 31.49536133 C34.89510621 35.82170369 38.62633591 40.3235032 42.3203125 44.91796875 C43.83273177 46.86818205 43.83273177 46.86818205 45 48 C45.33 32.16 45.66 16.32 46 0 C48.64 0 51.28 0 54 0 C54 22.44 54 44.88 54 68 C49.0975981 66.77439952 47.41607181 64.37573691 44.375 60.625 C43.30484948 59.33862437 42.23321495 58.05348196 41.16015625 56.76953125 C40.62793457 56.12967285 40.09571289 55.48981445 39.54736328 54.83056641 C37.37142972 52.25638688 35.10105571 49.78729186 32.8125 47.3125 C29.58444746 43.79613655 26.49914266 40.21347436 23.5 36.5 C18.86345767 30.83311493 13.92528388 25.41781227 9 20 C8.67 35.84 8.34 51.68 8 68 C5.36 68 2.72 68 0 68 C0 45.56 0 23.12 0 0 Z " fill="#FFFFFF" transform="translate(1634,277)"/>
<path d="M0 0 C17.49 0 34.98 0 53 0 C53 3.3 53 6.6 53 10 C46.07 10 39.14 10 32 10 C32 38.38 32 66.76 32 96 C28.37 96 24.74 96 21 96 C21 67.62 21 39.24 21 10 C14.07 10 7.14 10 0 10 C0 6.7 0 3.4 0 0 Z " fill="#FFFFFF" transform="translate(1231,432)"/>
<path d="M0 0 C28 0 28 0 36 3 C40.65418395 7.65418395 42.78617684 11.34859282 43.3125 17.875 C43.14413353 23.46266214 41.22249442 27.55230924 37.625 31.8125 C32.94426362 35.71311365 27.79223071 36.56522726 22 38 C22.38220703 38.48766846 22.76441406 38.97533691 23.15820312 39.4777832 C44 66.09747292 44 66.09747292 44 68 C40.54129469 68.51730353 37.44727273 68.65854579 34 68 C30.96933428 65.72755768 29.0460959 62.86811911 26.9375 59.75 C26.34606201 58.93474854 25.75462402 58.11949707 25.14526367 57.27954102 C23.40262162 54.87134111 21.70081278 52.43783165 20 50 C18.6673971 48.15413466 17.32286689 46.31861171 15.96508789 44.49121094 C14.88490106 43.03509804 13.82638821 41.56297706 12.76953125 40.08984375 C11.09239857 37.74209913 11.09239857 37.74209913 8 37 C8 47.23 8 57.46 8 68 C5.36 68 2.72 68 0 68 C0 45.56 0 23.12 0 0 Z M8 7 C8 14.26 8 21.52 8 29 C12.269375 29.0928125 12.269375 29.0928125 16.625 29.1875 C17.51010254 29.21481201 18.39520508 29.24212402 19.30712891 29.27026367 C24.28608499 29.32237294 27.70977318 28.80947057 32 26 C34.39074278 22.60668767 34.98961886 20.59172484 35.0625 16.4375 C33.67811593 11.95861037 31.9133413 10.51044536 28 8 C23.51716536 6.97334797 19.21149327 6.8942312 14.625 6.9375 C12.43875 6.958125 10.2525 6.97875 8 7 Z " fill="#FFFFFF" transform="translate(1328,277)"/>
<path d="M0 0 C3.63 0 7.26 0 11 0 C11 28.38 11 56.76 11 86 C22.88 86 34.76 86 47 86 C47 89.3 47 92.6 47 96 C31.49 96 15.98 96 0 96 C0 64.32 0 32.64 0 0 Z " fill="#FFFFFF" transform="translate(1762,432)"/>
<path d="M0 0 C3.18062201 2.54331741 4.5208282 4.70073252 5.8125 8.5625 C4.0625 10.125 4.0625 10.125 1.8125 11.5625 C-1.48128667 11.17069876 -3.1043362 9.96403361 -5.4375 7.6875 C-11.99602149 1.93149802 -18.2911556 0.99657978 -26.9296875 1.20703125 C-33.78445494 1.9549735 -40.33396971 4.57029742 -45.1875 9.5625 C-50.4365298 16.30028971 -52.5847842 23.09871039 -52.0625 31.625 C-51.15763217 38.48070449 -48.08471962 44.66528038 -43.1875 49.5625 C-34.58632408 55.17472754 -27.45316542 56.41897737 -17.1875 55.5625 C-10.71869504 53.86528731 -5.9377338 50.1447191 -1.1875 45.5625 C3.52596154 47.05096154 3.52596154 47.05096154 4.9765625 49.640625 C5.25242187 50.27484375 5.52828125 50.9090625 5.8125 51.5625 C-3.27748659 60.16897667 -11.69557374 64.4595755 -24.4296875 64.59765625 C-34.90868528 64.09219871 -44.64833542 61.1825569 -52.1875 53.5625 C-59.22252306 43.82290141 -62.66358675 33.73175073 -60.7265625 21.69921875 C-58.31034282 10.51354293 -53.59785397 3.66334148 -44.109375 -2.7734375 C-30.4471927 -10.55430603 -12.63618815 -9.27463809 0 0 Z " fill="#FFFFFF" transform="translate(1169.1875,282.4375)"/>
<path d="M0 0 C0.99 0 1.98 0 3 0 C20.30143006 36.41975857 20.30143006 36.41975857 27.78018188 52.44177246 C28.61424808 54.22698686 29.45199807 56.01047866 30.28979492 57.79394531 C30.78455322 58.85709961 31.27931152 59.92025391 31.7890625 61.015625 C32.21912598 61.93633789 32.64918945 62.85705078 33.09228516 63.80566406 C34 66 34 66 34 68 C31.03 68 28.06 68 25 68 C21.7 61.07 18.4 54.14 15 47 C5.76 47 -3.48 47 -13 47 C-16.3 53.93 -19.6 60.86 -23 68 C-25.97 68 -28.94 68 -32 68 C-30.44293723 62.8873398 -28.3078464 58.20498099 -26 53.40234375 C-25.60763153 52.57864288 -25.21526306 51.75494202 -24.81100464 50.90628052 C-23.54399697 48.24841763 -22.27211577 45.59292127 -21 42.9375 C-20.13267417 41.12115612 -19.26564975 39.30466827 -18.39892578 37.48803711 C-16.70144072 33.93105016 -15.00222795 30.3748967 -13.30175781 26.81933594 C-11.37699782 22.79265211 -9.46243806 18.76133182 -7.5546875 14.7265625 C-7.08804687 13.74051025 -6.62140625 12.75445801 -6.140625 11.73852539 C-5.31902444 10.00134103 -4.49864008 8.26358074 -3.6796875 6.52514648 C-1.11210767 1.11210767 -1.11210767 1.11210767 0 0 Z M0 17 C-1.50626117 20.12202006 -3.00393243 23.24808399 -4.5 26.375 C-4.92925781 27.26445312 -5.35851563 28.15390625 -5.80078125 29.0703125 C-6.20683594 29.92109375 -6.61289063 30.771875 -7.03125 31.6484375 C-7.40830078 32.43395996 -7.78535156 33.21948242 -8.17382812 34.02880859 C-9.12884831 35.9512028 -9.12884831 35.9512028 -9 38 C-2.4 38 4.2 38 11 38 C9.32597012 32.94500294 9.32597012 32.94500294 7.2734375 28.1328125 C6.9640625 27.47539062 6.6546875 26.81796875 6.3359375 26.140625 C6.01882813 25.47546875 5.70171875 24.8103125 5.375 24.125 C5.05015625 23.43664062 4.7253125 22.74828125 4.390625 22.0390625 C3.59676528 20.35794781 2.79880442 18.67877079 2 17 C1.34 17 0.68 17 0 17 Z " fill="#FFFFFF" transform="translate(1275,277)"/>
<path d="M0 0 C3.96 0 7.92 0 12 0 C12 35.31 12 70.62 12 107 C8.04 107 4.08 107 0 107 C0 71.69 0 36.38 0 0 Z " fill="#FFFFFF" transform="translate(971,619)"/>
<path d="M0 0 C1.87744141 0.0871582 1.87744141 0.0871582 4 1 C5.51708984 3.39135742 5.51708984 3.39135742 6.9609375 6.60546875 C7.78223145 8.40165649 7.78223145 8.40165649 8.62011719 10.23413086 C9.20534568 11.55180178 9.79029986 12.86959455 10.375 14.1875 C10.98453269 15.5339509 11.59555664 16.87972762 12.20800781 18.22485352 C13.163107 20.32412843 14.11662081 22.42402871 15.06445312 24.52659607 C17.31393397 29.51561819 19.61912346 34.47557721 21.9609375 39.421875 C22.2806955 40.09877884 22.60045349 40.77568268 22.92990112 41.47309875 C24.17247637 44.10334535 25.4151249 46.7335294 26.66473389 49.36044312 C27.52626213 51.17413556 28.38045305 52.99130772 29.234375 54.80859375 C29.72131836 55.83782959 30.20826172 56.86706543 30.70996094 57.92749023 C32.10868847 61.25886533 33.07305738 64.51137978 34 68 C31.36 68 28.72 68 26 68 C24.70326398 65.46080994 23.41252163 62.91885762 22.125 60.375 C21.76019531 59.66214844 21.39539062 58.94929688 21.01953125 58.21484375 C20.48779297 57.16103516 20.48779297 57.16103516 19.9453125 56.0859375 C19.45828857 55.1276001 19.45828857 55.1276001 18.96142578 54.14990234 C17.78145586 51.51130024 16.91403228 48.74209684 16 46 C6.43 46 -3.14 46 -13 46 C-13.66 47.98 -14.32 49.96 -15 52 C-15.61580592 53.37704086 -16.26190389 54.74116573 -16.9453125 56.0859375 C-17.29980469 56.78847656 -17.65429688 57.49101562 -18.01953125 58.21484375 C-18.38433594 58.92769531 -18.74914063 59.64054687 -19.125 60.375 C-19.49753906 61.11105469 -19.87007812 61.84710938 -20.25390625 62.60546875 C-21.1656122 64.40550358 -22.08229932 66.20301402 -23 68 C-25.64 68 -28.28 68 -31 68 C-30.36048287 63.64933002 -28.75312173 59.98284682 -26.859375 56.05859375 C-26.54051834 55.38606567 -26.22166168 54.7135376 -25.8931427 54.02062988 C-24.85044216 51.82382925 -23.80023235 49.63070841 -22.75 47.4375 C-21.6619074 45.15025981 -20.57575083 42.86210719 -19.48976135 40.5738678 C-18.75180665 39.01915978 -18.01322592 37.46474876 -17.27403259 35.91062927 C-14.84873311 30.80734139 -12.45231203 25.69156338 -10.08203125 20.5625 C-9.780159 19.90943375 -9.47828674 19.25636749 -9.16726685 18.58351135 C-7.74176144 15.49701602 -6.31954553 12.40904193 -4.89941406 9.32006836 C-4.39764648 8.23346924 -3.89587891 7.14687012 -3.37890625 6.02734375 C-2.9413501 5.07593506 -2.50379395 4.12452637 -2.05297852 3.14428711 C-1 1 -1 1 0 0 Z M1 16 C-0.66978345 19.4776793 -2.33530299 22.95738341 -4 26.4375 C-4.47695312 27.43072266 -4.95390625 28.42394531 -5.4453125 29.44726562 C-6.12207031 30.86362305 -6.12207031 30.86362305 -6.8125 32.30859375 C-7.23144531 33.18314209 -7.65039062 34.05769043 -8.08203125 34.95874023 C-9.06835707 36.77897513 -9.06835707 36.77897513 -9 38 C-2.07 38 4.86 38 12 38 C10.54719915 34.70578903 9.08806363 31.4146492 7.625 28.125 C7.2125 27.18785156 6.8 26.25070312 6.375 25.28515625 C5.97539063 24.38925781 5.57578125 23.49335938 5.1640625 22.5703125 C4.79748535 21.74289551 4.4309082 20.91547852 4.05322266 20.06298828 C3.05862859 17.85312405 3.05862859 17.85312405 1 16 Z " fill="#FFFFFF" transform="translate(1419,277)"/>
<path d="M0 0 C13.2 0 26.4 0 40 0 C40 2.31 40 4.62 40 7 C29.44 7 18.88 7 8 7 C8 13.6 8 20.2 8 27 C18.23 27 28.46 27 39 27 C39 29.64 39 32.28 39 35 C28.77 35 18.54 35 8 35 C8 43.25 8 51.5 8 60 C18.23 60 28.46 60 39 60 C39 62.64 39 65.28 39 68 C26.13 68 13.26 68 0 68 C0 45.56 0 23.12 0 0 Z " fill="#FFFFFF" transform="translate(1052,277)"/>
<path d="M0 0 C3.63 0 7.26 0 11 0 C11 33 11 66 11 100 C7.37 100 3.74 100 0 100 C0 67 0 34 0 0 Z " fill="#FFFFFF" transform="translate(1878,91)"/>
<path d="M0 0 C3.63 0 7.26 0 11 0 C11 33 11 66 11 100 C7.37 100 3.74 100 0 100 C0 67 0 34 0 0 Z " fill="#FFFFFF" transform="translate(1535,91)"/>
<path d="M0 0 C3.3 0 6.6 0 10 0 C10 31.68 10 63.36 10 96 C6.7 96 3.4 96 0 96 C0 64.32 0 32.64 0 0 Z " fill="#FFFFFF" transform="translate(1408,432)"/>
<path d="M0 0 C12.21 0 24.42 0 37 0 C37 2.31 37 4.62 37 7 C32.05 7 27.1 7 22 7 C22 27.13 22 47.26 22 68 C19.69 68 17.38 68 15 68 C15 47.87 15 27.74 15 7 C10.05 7 5.1 7 0 7 C0 4.69 0 2.38 0 0 Z " fill="#FFFFFF" transform="translate(1458,277)"/>
<path d="M0 0 C2.31 0 4.62 0 7 0 C7 19.8 7 39.6 7 60 C15.58 60 24.16 60 33 60 C33 62.64 33 65.28 33 68 C22.11 68 11.22 68 0 68 C0 45.56 0 23.12 0 0 Z " fill="#FFFFFF" transform="translate(1197,277)"/>
<path d="M0 0 C2.64 0 5.28 0 8 0 C8 22.44 8 44.88 8 68 C5.36 68 2.72 68 0 68 C0 45.56 0 23.12 0 0 Z " fill="#FFFFFF" transform="translate(1512,277)"/>
</svg>
