<svg width="228" height="98" viewBox="0 0 228 98" fill="none" xmlns="http://www.w3.org/2000/svg">
<path d="M116.765 22.8306V12.0618H114.017V10.8932H120.771V12.0618H118.022V22.8306H116.765Z" fill="#231F20"/>
<path d="M131.755 22.8306V17.0688H125.479V22.8306H124.247V10.8932H125.479V15.9003H131.755V10.8932H132.986V22.8306H131.755Z" fill="#231F20"/>
<path d="M137.71 22.8306V10.8932H144.775V12.0618H138.942V15.8011H144.724V16.9715H138.942V21.662H144.724V22.8306H137.71Z" fill="#231F20"/>
<path d="M164.504 22.83L156.368 13.7906V22.83H155.094V10.8926H155.363L163.566 20.0429V10.8926H164.782V22.83H164.504Z" fill="#231F20"/>
<path d="M178.951 22.83L177.012 18.9022H171.702L169.781 22.83H168.407L174.231 10.8926H174.532L180.28 22.83H178.951ZM172.265 17.7499H176.48L174.378 13.429L172.265 17.7499Z" fill="#231F20"/>
<path d="M184.963 22.8309H183.731V10.8935H184.963V22.8309Z" fill="#231F20"/>
<path d="M190.802 12.0617V16.1192L192.926 16.1355C193.748 16.1355 194.356 16.0597 194.751 15.9083C195.144 15.7568 195.453 15.5142 195.674 15.1824C195.895 14.8488 196.006 14.4773 196.006 14.0661C196.006 13.6658 195.893 13.3024 195.67 12.9742C195.447 12.6478 195.153 12.4124 194.789 12.2727C194.425 12.132 193.82 12.0617 192.976 12.0617H190.802ZM189.57 10.8931H192.025C193.394 10.8931 194.321 10.9472 194.807 11.0554C195.539 11.2177 196.134 11.5657 196.592 12.0995C197.05 12.6333 197.279 13.2898 197.279 14.0706C197.279 14.7198 197.121 15.2915 196.805 15.7838C196.49 16.277 196.039 16.6494 195.453 16.901C194.866 17.1535 194.056 17.2824 193.023 17.2878L197.455 22.8305H195.931L191.497 17.2878H190.802V22.8305H189.57V10.8931Z" fill="#231F20"/>
<path d="M205.843 11.7534C204.932 11.7534 204.067 11.9843 203.249 12.4441C202.433 12.904 201.795 13.5243 201.336 14.3034C200.878 15.0833 200.648 15.9517 200.648 16.9101C200.648 18.3294 201.155 19.5268 202.171 20.5052C203.187 21.4826 204.41 21.9704 205.843 21.9704C206.799 21.9704 207.685 21.7459 208.499 21.2959C209.314 20.8478 209.948 20.2319 210.404 19.4529C210.86 18.6729 211.088 17.8073 211.088 16.8533C211.088 15.9057 210.86 15.0491 210.404 14.2835C209.948 13.518 209.306 12.904 208.479 12.4441C207.65 11.9843 206.771 11.7534 205.843 11.7534ZM205.789 10.593C207.656 10.593 209.218 11.1962 210.475 12.4026C211.734 13.6091 212.362 15.0942 212.362 16.8579C212.362 18.6062 211.735 20.0877 210.48 21.305C209.225 22.5222 207.694 23.1309 205.889 23.1309C204.062 23.1309 202.518 22.5258 201.26 21.314C200.004 20.1012 199.373 18.6351 199.373 16.9147C199.373 15.7677 199.661 14.7046 200.234 13.7254C200.807 12.7471 201.588 11.9797 202.577 11.4252C203.566 10.8707 204.636 10.593 205.789 10.593Z" fill="#231F20"/>
<path d="M216.074 17.0846V21.6615H217.602C218.503 21.6615 219.163 21.5759 219.583 21.4063C220.002 21.2359 220.339 20.969 220.594 20.6065C220.848 20.2441 220.976 19.8518 220.976 19.4307C220.976 18.8997 220.797 18.4371 220.439 18.0422C220.081 17.6472 219.59 17.3767 218.963 17.2306C218.542 17.1333 217.812 17.0846 216.771 17.0846H216.074ZM216.074 12.0613V15.8835H216.779C217.635 15.8835 218.266 15.806 218.669 15.6527C219.071 15.4985 219.39 15.2541 219.626 14.9223C219.861 14.5887 219.979 14.2199 219.979 13.8142C219.979 13.2677 219.781 12.8394 219.387 12.5275C218.992 12.2173 218.363 12.0613 217.501 12.0613H216.074ZM214.867 10.8927H217.297C218.275 10.8927 219.026 11.0045 219.551 11.2299C220.077 11.4545 220.491 11.7989 220.796 12.2651C221.1 12.7303 221.252 13.2461 221.252 13.8142C221.252 14.3444 221.119 14.8277 220.852 15.2623C220.585 15.6987 220.193 16.0521 219.676 16.3217C220.317 16.5327 220.809 16.7807 221.155 17.0638C221.5 17.3488 221.769 17.6923 221.961 18.0954C222.153 18.4975 222.25 18.9348 222.25 19.4055C222.25 20.3631 221.888 21.1737 221.165 21.8355C220.441 22.4992 219.47 22.8301 218.253 22.8301H214.867V10.8927Z" fill="#231F20"/>
<path d="M227.46 22.8309H226.228V10.8935H227.46V22.8309Z" fill="#231F20"/>
<path d="M114.067 61.1589L115.063 60.58C115.765 61.8306 116.575 62.4555 117.496 62.4555C117.889 62.4555 118.258 62.368 118.603 62.1895C118.949 62.0119 119.212 61.7738 119.393 61.4754C119.573 61.1769 119.664 60.8604 119.664 60.5259C119.664 60.1445 119.531 59.7721 119.265 59.406C118.898 58.9019 118.229 58.2933 117.256 57.5837C116.278 56.8687 115.669 56.3511 115.43 56.031C115.016 55.4963 114.809 54.9174 114.809 54.2943C114.809 53.7993 114.93 53.3494 115.175 52.9427C115.42 52.5361 115.763 52.216 116.208 51.9815C116.652 51.7471 117.134 51.6299 117.654 51.6299C118.207 51.6299 118.725 51.7624 119.205 52.0275C119.687 52.2926 120.195 52.7804 120.732 53.4909L119.775 54.1934C119.335 53.628 118.959 53.2538 118.648 53.0744C118.337 52.894 117.998 52.8039 117.631 52.8039C117.158 52.8039 116.771 52.9427 116.471 53.2213C116.17 53.4991 116.02 53.8408 116.02 54.2475C116.02 54.4954 116.073 54.7344 116.18 54.9661C116.286 55.1978 116.48 55.4494 116.762 55.7226C116.916 55.8669 117.421 56.2456 118.277 56.8578C119.292 57.5837 119.988 58.2293 120.366 58.7955C120.744 59.3627 120.932 59.9317 120.932 60.5033C120.932 61.3266 120.609 62.0416 119.963 62.6493C119.316 63.2571 118.532 63.56 117.607 63.56C116.895 63.56 116.249 63.3761 115.669 63.0091C115.089 62.6403 114.557 62.0236 114.067 61.1589Z" fill="#231F20"/>
<path d="M125.085 51.9155H126.257V58.7728C126.257 59.5853 126.273 60.0929 126.304 60.294C126.363 60.7421 126.499 61.1163 126.711 61.4175C126.924 61.7186 127.251 61.9702 127.692 62.174C128.133 62.3769 128.578 62.4797 129.024 62.4797C129.411 62.4797 129.783 62.3994 130.14 62.2398C130.496 62.0802 130.793 61.8584 131.032 61.5753C131.272 61.2921 131.447 60.9495 131.56 60.5483C131.639 60.2606 131.679 59.6682 131.679 58.7728V51.9155H132.85V58.7728C132.85 59.7863 132.749 60.6069 132.544 61.2326C132.339 61.8575 131.93 62.4021 131.316 62.8647C130.702 63.3281 129.959 63.5599 129.087 63.5599C128.141 63.5599 127.33 63.3417 126.655 62.9035C125.98 62.4661 125.528 61.8864 125.3 61.1668C125.156 60.7241 125.085 59.9261 125.085 58.7728V51.9155Z" fill="#231F20"/>
<path d="M136.158 61.1589L137.154 60.58C137.856 61.8306 138.666 62.4555 139.587 62.4555C139.98 62.4555 140.349 62.368 140.694 62.1895C141.041 62.0119 141.303 61.7738 141.484 61.4754C141.664 61.1769 141.756 60.8604 141.756 60.5259C141.756 60.1445 141.623 59.7721 141.356 59.406C140.989 58.9019 140.32 58.2933 139.347 57.5837C138.369 56.8687 137.761 56.3511 137.521 56.031C137.107 55.4963 136.9 54.9174 136.9 54.2943C136.9 53.7993 137.021 53.3494 137.266 52.9427C137.511 52.5361 137.855 52.216 138.299 51.9815C138.743 51.7471 139.225 51.6299 139.746 51.6299C140.299 51.6299 140.816 51.7624 141.297 52.0275C141.778 52.2926 142.286 52.7804 142.824 53.4909L141.866 54.1934C141.426 53.628 141.05 53.2538 140.739 53.0744C140.428 52.894 140.089 52.8039 139.722 52.8039C139.249 52.8039 138.862 52.9427 138.562 53.2213C138.261 53.4991 138.112 53.8408 138.112 54.2475C138.112 54.4954 138.165 54.7344 138.271 54.9661C138.377 55.1978 138.572 55.4494 138.853 55.7226C139.007 55.8669 139.512 56.2456 140.368 56.8578C141.383 57.5837 142.079 58.2293 142.458 58.7955C142.835 59.3627 143.023 59.9317 143.023 60.5033C143.023 61.3266 142.7 62.0416 142.055 62.6493C141.407 63.2571 140.624 63.56 139.698 63.56C138.986 63.56 138.341 63.3761 137.761 63.0091C137.181 62.6403 136.647 62.0236 136.158 61.1589Z" fill="#231F20"/>
<path d="M145.972 53.0277V51.9159H152.399V53.0277H149.783V63.2753H148.587V53.0277H145.972Z" fill="#231F20"/>
<path d="M159.042 54.329L157.032 58.4416H161.042L159.042 54.329ZM159.19 51.9161L164.659 63.2755H163.393L161.549 59.538H156.496L154.669 63.2755H153.361L158.903 51.9161H159.19Z" fill="#231F20"/>
<path d="M169.115 63.2756H167.943V51.9162H169.115V63.2756Z" fill="#231F20"/>
<path d="M173.443 63.2747V51.9153H173.698L181.505 60.6238V51.9153H182.66V63.2747H182.398L174.655 54.6736V63.2747H173.443Z" fill="#231F20"/>
<path d="M191.791 54.329L189.781 58.4416H193.791L191.791 54.329ZM191.939 51.9161L197.409 63.2755H196.142L194.298 59.538H189.245L187.419 63.2755H186.11L191.652 51.9161H191.939Z" fill="#231F20"/>
<path d="M202.04 57.8071V62.1632H203.493C204.351 62.1632 204.978 62.0811 205.379 61.9197C205.777 61.7574 206.098 61.504 206.34 61.1587C206.583 60.8143 206.703 60.441 206.703 60.0388C206.703 59.5348 206.534 59.0938 206.193 58.7178C205.852 58.3427 205.385 58.0858 204.788 57.946C204.389 57.854 203.694 57.8071 202.703 57.8071H202.04ZM202.04 53.0273V56.6647H202.711C203.526 56.6647 204.125 56.5908 204.508 56.4447C204.892 56.2977 205.196 56.066 205.419 55.7495C205.644 55.4321 205.755 55.0814 205.755 54.6954C205.755 54.1752 205.568 53.7676 205.192 53.4709C204.816 53.1752 204.218 53.0273 203.398 53.0273H202.04ZM200.892 51.9155H203.204C204.134 51.9155 204.849 52.0219 205.349 52.2356C205.848 52.4502 206.243 52.7776 206.533 53.2212C206.823 53.663 206.967 54.1544 206.967 54.6954C206.967 55.2004 206.84 55.6593 206.587 56.0732C206.333 56.4889 205.959 56.8243 205.468 57.0813C206.077 57.2824 206.546 57.5177 206.875 57.7882C207.203 58.0587 207.458 58.3851 207.642 58.7683C207.824 59.1516 207.916 59.5681 207.916 60.0163C207.916 60.927 207.571 61.6979 206.884 62.3291C206.195 62.9594 205.271 63.2749 204.113 63.2749H200.892V51.9155Z" fill="#231F20"/>
<path d="M211.869 51.9158H213.041V62.1788H217.554V63.2752H211.869V51.9158Z" fill="#231F20"/>
<path d="M221.052 51.9158H227.774V53.0276H222.225V56.5874H227.726V57.6992H222.225V62.1634H227.726V63.2752H221.052V51.9158Z" fill="#231F20"/>
<path d="M114.834 40.5496H115.794C116.942 40.5496 117.74 40.4801 118.185 40.3413C118.81 40.1447 119.302 39.7904 119.659 39.2782C120.017 38.766 120.196 38.1394 120.196 37.4C120.196 36.6236 120.003 35.96 119.614 35.41C119.226 34.8591 118.685 34.4821 117.994 34.2775C117.472 34.1251 116.616 34.0484 115.422 34.0484H114.834V40.5496ZM114.037 41.3106V33.2604H115.761C117.004 33.2604 117.906 33.3568 118.466 33.5498C119.274 33.8239 119.903 34.2982 120.357 34.9727C120.811 35.648 121.038 36.4523 121.038 37.3865C121.038 38.1926 120.858 38.9031 120.498 39.5153C120.139 40.1276 119.672 40.5811 119.097 40.8724C118.523 41.1645 117.717 41.3106 116.681 41.3106H114.037Z" fill="#231F20"/>
<path d="M123.811 33.2606H128.574V34.0487H124.641V36.5716H128.54V37.3597H124.641V40.5228H128.54V41.3109H123.811V33.2606Z" fill="#231F20"/>
<path d="M138.909 34.7543L138.253 35.2412C137.892 34.7859 137.457 34.4405 136.951 34.2043C136.444 33.9699 135.888 33.8517 135.281 33.8517C134.618 33.8517 134.004 34.0059 133.438 34.3143C132.874 34.6227 132.436 35.0365 132.125 35.5568C131.814 36.0762 131.659 36.6605 131.659 37.3097C131.659 38.2916 132.006 39.1113 132.701 39.7677C133.397 40.4241 134.273 40.7523 135.332 40.7523C136.496 40.7523 137.469 40.3114 138.253 39.4277L138.909 39.9092C138.494 40.4205 137.977 40.8154 137.358 41.095C136.738 41.3736 136.046 41.5133 135.281 41.5133C133.827 41.5133 132.679 41.0445 131.839 40.1067C131.135 39.315 130.783 38.3592 130.783 37.2394C130.783 36.0609 131.21 35.069 132.063 34.2647C132.917 33.4604 133.985 33.0583 135.27 33.0583C136.046 33.0583 136.746 33.2061 137.373 33.5037C137.997 33.8021 138.509 34.2187 138.909 34.7543Z" fill="#231F20"/>
<path d="M141.733 33.2606H142.564V40.5336H145.763V41.3109H141.733V33.2606Z" fill="#231F20"/>
<path d="M151.527 34.971L150.102 37.8843H152.945L151.527 34.971ZM151.632 33.2605L155.508 41.3107H154.611L153.303 38.6616H149.723L148.427 41.3107H147.501L151.428 33.2605H151.632Z" fill="#231F20"/>
<path d="M158.83 34.0484V36.785L160.261 36.7959C160.817 36.7959 161.226 36.7445 161.492 36.6426C161.758 36.5407 161.965 36.3766 162.115 36.153C162.264 35.9284 162.339 35.6778 162.339 35.4001C162.339 35.1314 162.263 34.8852 162.113 34.6652C161.961 34.4434 161.762 34.2865 161.518 34.1909C161.273 34.0962 160.865 34.0484 160.295 34.0484H158.83ZM157.999 33.2604H159.655C160.577 33.2604 161.203 33.2973 161.531 33.3704C162.024 33.4795 162.424 33.7148 162.734 34.0746C163.044 34.4344 163.197 34.8771 163.197 35.4028C163.197 35.841 163.091 36.2269 162.878 36.5596C162.666 36.8923 162.361 37.143 161.965 37.3125C161.57 37.482 161.023 37.5695 160.327 37.5722L163.316 41.3106H162.288L159.299 37.5722H158.83V41.3106H157.999V33.2604Z" fill="#231F20"/>
<path d="M169.426 34.971L168.002 37.8843H170.844L169.426 34.971ZM169.532 33.2605L173.408 41.3107H172.511L171.203 38.6616H167.623L166.327 41.3107H165.401L169.328 33.2605H169.532Z" fill="#231F20"/>
<path d="M174.09 34.0484V33.2604H178.645V34.0484H176.791V41.3106H175.943V34.0484H174.09Z" fill="#231F20"/>
<path d="M181.711 41.3106H180.881V33.2604H181.711V41.3106Z" fill="#231F20"/>
<path d="M188.768 33.8408C188.153 33.8408 187.571 33.995 187.02 34.3061C186.469 34.6163 186.038 35.0347 185.728 35.5603C185.42 36.0869 185.265 36.6721 185.265 37.3186C185.265 38.2753 185.607 39.0832 186.293 39.7423C186.977 40.4015 187.802 40.7306 188.768 40.7306C189.413 40.7306 190.011 40.5791 190.56 40.2761C191.109 39.9732 191.537 39.5584 191.844 39.0327C192.153 38.507 192.305 37.9227 192.305 37.2798C192.305 36.6405 192.153 36.0635 191.844 35.5468C191.537 35.0301 191.104 34.6163 190.546 34.3061C189.987 33.995 189.395 33.8408 188.768 33.8408ZM188.732 33.0582C189.991 33.0582 191.045 33.4648 191.893 34.279C192.74 35.0924 193.165 36.0932 193.165 37.2825C193.165 38.461 192.742 39.461 191.896 40.2815C191.048 41.1021 190.017 41.5132 188.8 41.5132C187.567 41.5132 186.526 41.1039 185.678 40.287C184.83 39.47 184.405 38.4809 184.405 37.3213C184.405 36.5477 184.599 35.8308 184.985 35.1699C185.372 34.5108 185.898 33.9932 186.566 33.619C187.233 33.2448 187.955 33.0582 188.732 33.0582Z" fill="#231F20"/>
<path d="M195.994 41.3103V33.2601H196.175L201.707 39.4312V33.2601H202.526V41.3103H202.34L196.852 35.2141V41.3103H195.994Z" fill="#231F20"/>
<path d="M214.063 33.8408C213.447 33.8408 212.865 33.995 212.314 34.3061C211.763 34.6163 211.333 35.0347 211.023 35.5603C210.715 36.0869 210.559 36.6721 210.559 37.3186C210.559 38.2753 210.902 39.0832 211.587 39.7423C212.271 40.4015 213.096 40.7306 214.063 40.7306C214.708 40.7306 215.306 40.5791 215.854 40.2761C216.403 39.9732 216.832 39.5584 217.139 39.0327C217.447 38.507 217.6 37.9227 217.6 37.2798C217.6 36.6405 217.447 36.0635 217.139 35.5468C216.832 35.0301 216.399 34.6163 215.84 34.3061C215.281 33.995 214.689 33.8408 214.063 33.8408ZM214.026 33.0582C215.285 33.0582 216.339 33.4648 217.187 34.279C218.034 35.0924 218.459 36.0932 218.459 37.2825C218.459 38.461 218.036 39.461 217.19 40.2815C216.343 41.1021 215.311 41.5132 214.094 41.5132C212.862 41.5132 211.821 41.1039 210.973 40.287C210.124 39.47 209.7 38.4809 209.7 37.3213C209.7 36.5477 209.894 35.8308 210.28 35.1699C210.666 34.5108 211.192 33.9932 211.861 33.619C212.527 33.2448 213.249 33.0582 214.026 33.0582Z" fill="#231F20"/>
<path d="M221.289 41.3103V33.2601H221.469L227.001 39.4312V33.2601H227.821V41.3103H227.635L222.147 35.2141V41.3103H221.289Z" fill="#231F20"/>
<path d="M115.098 87.1019H113.785V74.3819H115.098V87.1019Z" fill="#231F20"/>
<path d="M119.944 87.102V74.382H120.23L128.971 84.1319V74.382H130.266V87.102H129.97L121.302 77.4702V87.102H119.944Z" fill="#231F20"/>
<path d="M133.934 84.733L135.049 84.0838C135.835 85.485 136.743 86.1856 137.773 86.1856C138.214 86.1856 138.626 86.0864 139.014 85.8871C139.401 85.6887 139.696 85.4218 139.898 85.0873C140.1 84.7537 140.202 84.3984 140.202 84.0233C140.202 83.5968 140.054 83.1794 139.755 82.77C139.344 82.2046 138.594 81.5248 137.505 80.7286C136.409 79.9279 135.728 79.349 135.46 78.991C134.996 78.3914 134.764 77.7431 134.764 77.0452C134.764 76.4916 134.9 75.9875 135.175 75.5322C135.448 75.0768 135.834 74.718 136.33 74.4556C136.828 74.1932 137.368 74.0624 137.952 74.0624C138.57 74.0624 139.149 74.2103 139.689 74.507C140.227 74.8045 140.796 75.3509 141.398 76.1453L140.326 76.9325C139.832 76.2986 139.411 75.8811 139.063 75.6792C138.715 75.4781 138.336 75.3762 137.924 75.3762C137.395 75.3762 136.962 75.5322 136.625 75.8433C136.289 76.1543 136.122 76.5385 136.122 76.9938C136.122 77.2697 136.18 77.5384 136.3 77.7981C136.419 78.0569 136.637 78.3391 136.951 78.6457C137.124 78.8062 137.69 79.2309 138.648 79.9162C139.785 80.7286 140.565 81.4526 140.987 82.0874C141.409 82.7213 141.621 83.3579 141.621 83.9981C141.621 84.9196 141.26 85.7212 140.536 86.402C139.813 87.0818 138.934 87.4227 137.898 87.4227C137.1 87.4227 136.377 87.2153 135.728 86.8041C135.079 86.3921 134.481 85.7014 133.934 84.733Z" fill="#231F20"/>
<path d="M146.272 74.3815H147.584V82.0603C147.584 82.971 147.602 83.539 147.638 83.7635C147.703 84.2658 147.855 84.6842 148.094 85.0223C148.331 85.3595 148.697 85.6417 149.191 85.869C149.686 86.0971 150.183 86.2116 150.683 86.2116C151.117 86.2116 151.534 86.1214 151.932 85.9429C152.332 85.7644 152.665 85.5155 152.933 85.1999C153.2 84.8825 153.397 84.4984 153.522 84.0494C153.611 83.7266 153.656 83.0638 153.656 82.0603V74.3815H154.968V82.0603C154.968 83.1964 154.854 84.1143 154.625 84.814C154.396 85.5146 153.937 86.125 153.25 86.6435C152.563 87.1629 151.73 87.4217 150.754 87.4217C149.695 87.4217 148.786 87.1764 148.03 86.6868C147.275 86.1963 146.769 85.548 146.513 84.741C146.352 84.245 146.272 83.3515 146.272 82.0603V74.3815Z" fill="#231F20"/>
<path d="M161.413 75.6268V79.9503L163.675 79.9684C164.552 79.9684 165.201 79.8881 165.621 79.7258C166.041 79.5653 166.37 79.3065 166.605 78.9522C166.84 78.5978 166.957 78.2011 166.957 77.7628C166.957 77.3363 166.839 76.9486 166.6 76.5997C166.361 76.2507 166.048 76.0019 165.661 75.8522C165.273 75.7016 164.629 75.6268 163.729 75.6268H161.413ZM160.101 74.3815H162.716C164.175 74.3815 165.163 74.4401 165.682 74.5547C166.46 74.7278 167.094 75.0993 167.583 75.6673C168.071 76.2363 168.315 76.936 168.315 77.7674C168.315 78.4598 168.146 79.0685 167.81 79.5942C167.474 80.1189 166.993 80.5166 166.368 80.7844C165.743 81.0531 164.88 81.1901 163.779 81.1965L168.502 87.1025H166.879L162.155 81.1965H161.413V87.1025H160.101V74.3815Z" fill="#231F20"/>
<path d="M178.156 77.0849L175.906 81.6889H180.396L178.156 77.0849ZM178.322 74.3816L184.447 87.1017H183.029L180.964 82.917H175.306L173.259 87.1017H171.795L178.001 74.3816H178.322Z" fill="#231F20"/>
<path d="M188.32 87.102V74.382H188.606L197.348 84.1319V74.382H198.642V87.102H198.347L189.678 77.4702V87.102H188.32Z" fill="#231F20"/>
<path d="M215.899 76.7429L214.863 77.5129C214.292 76.7916 213.606 76.2461 212.806 75.8737C212.005 75.5013 211.125 75.3164 210.167 75.3164C209.12 75.3164 208.149 75.559 207.257 76.0459C206.364 76.5328 205.672 77.1883 205.18 78.0098C204.69 78.8312 204.444 79.7545 204.444 80.7806C204.444 82.3315 204.993 83.6254 206.091 84.6633C207.19 85.7011 208.575 86.2196 210.248 86.2196C212.088 86.2196 213.626 85.5226 214.863 84.1277L215.899 84.8878C215.244 85.6957 214.427 86.3197 213.449 86.7597C212.469 87.2015 211.376 87.4224 210.167 87.4224C207.87 87.4224 206.057 86.6812 204.729 85.1998C203.617 83.9491 203.06 82.4388 203.06 80.6688C203.06 78.8068 203.734 77.2397 205.083 75.9692C206.431 74.697 208.12 74.0622 210.149 74.0622C211.376 74.0622 212.483 74.2966 213.471 74.7664C214.459 75.2362 215.269 75.8953 215.899 76.7429Z" fill="#231F20"/>
<path d="M220.371 74.3815H227.897V75.6267H221.684V79.6131H227.844V80.8583H221.684V85.8572H227.844V87.1015H220.371V74.3815Z" fill="#231F20"/>
<path fill-rule="evenodd" clip-rule="evenodd" d="M28.3467 27.4445C29.2852 18.1473 33.6005 9.77512 40.0777 3.50211C40.7806 2.81954 41.5096 2.16221 42.2638 1.53103C39.1243 0.53828 35.7772 -2.28882e-05 32.3091 -2.28882e-05H11.2455C5.04105 -0.000923157 0.0097501 4.87177 0.0097501 10.8806L0.00881958 31.2785C0.00881958 34.6381 0.565577 37.8815 1.59064 40.922C2.24516 40.1916 2.92295 39.4847 3.62588 38.8039C10.1021 32.5318 18.7477 28.3525 28.3467 27.4445Z" fill="#26A8E0"/>
<path d="M97.4203 59.0636C90.9551 65.325 82.3349 69.4992 72.7006 70.3995C71.7709 79.7301 67.4608 88.0786 60.9957 94.3399C60.2773 95.0356 59.559 95.6904 58.7984 96.3452C61.9253 97.3274 65.3058 97.8594 68.7708 97.8594H88.8846C95.6033 97.8594 101.054 92.5802 101.054 86.0733V66.5936C101.054 63.2378 100.505 59.9639 99.4909 56.9356C98.8148 57.6722 98.1387 58.3679 97.4203 59.0636Z" fill="url(#paint0_linear_859_381)"/>
<path d="M68.774 0.230618C59.8647 0.230618 51.7948 3.73199 45.9198 9.42172C41.0133 14.1736 37.6561 20.4886 36.6878 27.4913C36.6232 28.2416 36.5586 29.0544 36.4941 29.8672L42.3045 35.4944L53.4733 46.3112L64.5776 57.0654V43.9353C64.5776 41.8719 64.7713 39.9962 65.0941 38.183C59.8647 31.6179 58.8318 24.5527 61.2851 17.8625C61.5433 21.7391 61.2851 26.4909 66.4498 33.181C69.9361 23.8649 77.5541 18.4878 83.1063 15.7992C80.072 19.3631 72.7767 28.2416 72.7121 40.684V43.7477C80.9758 39.496 83.2354 34.8067 85.2368 31.2428C84.6557 38.4331 80.5885 44.623 72.7767 48.5621L72.9058 62.505C80.1365 61.6297 86.6571 58.3784 91.5636 53.564C97.4386 47.9368 101.054 40.1213 101.054 31.4929V8.92152C101.054 4.10714 97.0512 0.230618 92.0801 0.230618H68.774Z" fill="url(#paint1_linear_859_381)"/>
<path fill-rule="evenodd" clip-rule="evenodd" d="M8.97051 97.6418H32.3069C41.1805 97.6418 49.2563 94.1217 55.1125 88.4492C60.0405 83.6748 63.395 77.3819 64.3363 70.3849C64.4433 69.5932 64.5169 68.7943 64.5606 67.9873L58.7305 62.34L47.5944 51.5568L36.4611 40.7727L36.4602 53.9535C36.4602 70.0774 25.3567 78.4639 17.9345 82.0581C21.006 78.4874 28.2578 69.595 28.3537 57.1788L28.1554 35.3437C20.9296 36.2535 14.4292 39.5013 9.5012 44.2748C3.645 49.9473 0.0111808 57.7658 0.0111808 66.3607L8.27658e-06 88.9505C-0.00185379 93.7502 4.01462 97.6418 8.97051 97.6418Z" fill="#26A8E0"/>
<defs>
<linearGradient id="paint0_linear_859_381" x1="58.7984" y1="77.398" x2="101.054" y2="77.398" gradientUnits="userSpaceOnUse">
<stop stop-color="#37B44A"/>
<stop offset="1" stop-color="#8CC640"/>
</linearGradient>
<linearGradient id="paint1_linear_859_381" x1="36.4941" y1="31.367" x2="101.054" y2="31.367" gradientUnits="userSpaceOnUse">
<stop stop-color="#37B44A"/>
<stop offset="1" stop-color="#8CC640"/>
</linearGradient>
</defs>
</svg>
